<svg xmlns="http://www.w3.org/2000/svg" viewBox="0 0 184.68 367.74"><defs><style>.cls-1{fill:#ec2127;}</style></defs><title>Fichier 1</title><g id="Calque_2" data-name="Calque 2"><g id="Calque_1-2" data-name="Calque 1"><path class="cls-1" d="M16.8,54c.13-2.93-.64-5.42-3.32-7C12,44.41,9,44.39,6.67,43.28c-4.32-2.05-5.15-4.57-2.46-8.52a8.13,8.13,0,0,1,3.2-3.07c4.83-2.18,5.77-6.56,6-11.09a21.08,21.08,0,0,1,1.74-7.15c.85-2,3.27-3,4.08-.75,2.57,7.29,9.67,7.68,14.93,9.06,6.37,1.68,12,4.46,17.69,7.25a27.24,27.24,0,0,0,12.79-.1A12.85,12.85,0,0,1,76,28.06c9.19,3.87,12.83,3.31,16.87-2.62a28.77,28.77,0,0,0,3.4-7.09c1-3.11,1.66-6.41,3.54-9.2,2.54-2.87,5.69-2.76,9.31-3,8.1-.55,16.13.17,24.13,0,5.85-.14,11,.1,16,3a19.21,19.21,0,0,0,5.88,2.48c6.18,1.52,11.9,4.63,18.35,5.22,2.08.19,3.27,1.41,2.95,3.69-2.53,3.84-4.34,8.07-6.55,12.09A20.88,20.88,0,0,0,167,42.93c0,3.93-1,7.5-4.25,10.08-3.78,1.41-6.3,4.46-9.12,7.12a7.66,7.66,0,0,1-1.11.78c-3.87,1.46-5.32,4.49-5.48,8.39a11.81,11.81,0,0,1-1.18,5.19,7.4,7.4,0,0,1-.73,1.17c-5.21,6.92-12.19,12.27-17,19.49-1.1,1.64-1.44,3.57-2,5.4-1.63,3.78-1,7.35,1,10.78a2.64,2.64,0,0,1,.21,1.36c-.5,1.67-1.8,2.74-2.94,3.93-1.55,1.17-3.1,2.71-4.74.11-.45-2.8-3.91-6-6.38-5.88-.73,0-1.57.49-1.33,1,1,2.29.87,4.66,1.12,7,.14,1.37,2.29,1,3.23,1.89a2.62,2.62,0,0,1-.8,3.52c-2.95,1.85-5.17,4.7-8.46,6.07a2.72,2.72,0,0,1-2-1.87c-1.38-3.67-5.77-2.19-8-4.62-.32-.35-1.42,1-1.17,1.74.92,2.89-.25,6.41,2.57,8.72a3.28,3.28,0,0,1,1,1.88c-2.43,3.59-4.75,7.3-9.3,8.56a2.38,2.38,0,0,1-2.31-1.48c-.16-1.11.93-2.71-.21-3.24a35.32,35.32,0,0,1-6-3.06c-.35-.24-1,.18-1.17.65-.71,2.49.41,4.87.65,7.3.17,1.7,2,1.29,3.27,1.41a1.82,1.82,0,0,1,1.14.81,2.89,2.89,0,0,1-1.19,3.43c-3.35,1.91-5.57,5.24-9,7a2.25,2.25,0,0,1-2.45-1.21c.11-5.25-5.34-3.36-7.4-6,.47,4-1.54,8.91,4.17,10.7-1.1,4.72-9,10.63-13.81,10.37a1.07,1.07,0,0,1-.63-.69c-.4-1.76,2.89-2.53,1.43-4.26-1.24-1.46-3.58-1.42-5.27-2.53-1.22-.82-2.55,0-2.17,1.46.84,3.29-.08,7.5,4.23,9.21.11,0,.14.29.21.44-2.25,4.38-5.45,7.48-10.58,8.05-1.69-1.24-1.9-3-1.71-4.88,2.77-4.81,4-9.6-.17-14.34l.12.12c-1.52-.94-3.22-.71-4.84-.66-6.88.21-7.75-.76-6.65-7.61,1.62-2.56,3.33-.6,4.4.31,3.37,2.87,5.94,2.14,8.94-.71a112.15,112.15,0,0,1,11.36-9.53c3.49-2.52,4.36-5.09,2.09-8.76-.76-1.24-1.08-2.74-2-4.17-1.17,1.39-1.89,2.67-.49,4,3.18,3,1.43,4.81-1.25,6.6-1.48,1-2.42,2.8-4.46,2.9a1.94,1.94,0,0,1-1.58-1.23c-.34-2.88-2.48-3.57-5.06-4.26-.89,3.51.78,5.66,3.11,7.55-.43,3.73-4,4.56-6.19,6.59-.61.56-2.23.47-2.25,0-.21-4.59-4.86-2.52-6.65-4.63a105.93,105.93,0,0,1-.52-13.68l.28-2.9c-.18-1.17-1.08-2-1.45-3.09-.9-2.67-.33-4.84,2.73-4.91,4.62-.11,7.92-2.57,11.17-5.33.15-.06.35-.2.46-.15,5.81,3,9.69,0,13.63-3.94a54.25,54.25,0,0,1,7.6-6.39c3.55-2.45,4.56-5.44,2.43-9.42a17.57,17.57,0,0,1-1.94-5.46c-.82,1.61-1.31,3.26-.54,4.44,2.62,4,.84,6.41-2.52,8.55-1,.61-1.59,1.69-2.65,2.24-.8.29-2.27.41-2.29,0-.22-3.88-4.51-4.83-5.56-8,.66-4.61.82-9.11-1.81-13.32a4.66,4.66,0,0,1,.12-4.78c2.81-4.92,4.09-10.38,5.83-15.69C52.06,62,48.17,56.62,41,54.62,38.79,54,37.22,52,34.81,52c-5.13-.57-7.74,2.14-9.54,6.67-1.9,4.78-4.21,5.26-8.08,2.36C16.21,58.7,16.56,56.34,16.8,54Z"/><path class="cls-1" d="M28.43,301.81c-1-.62-1.58-2-3-2a3.86,3.86,0,0,1-.9-1.63c-.22-1.35-1.26-2.11-2.13-3a2.7,2.7,0,0,1-.45-1.23c2.56-3.64-.44-4.88-2.74-6.42,1.48-5.15,6-7.07,10-9.44a2.26,2.26,0,0,1,1.68,1.24c.2,5.36,5.35,3.93,8.15,6-.91-3.37,1.72-7.64-2.94-9.78a2.41,2.41,0,0,1-1.2-1.66c2.23-4.26,9-9.27,12.49-9.28-.35,4.86.84,6.27,6,7.2,1.34.24,2-.35,1.62-1.56-1-3.29-.39-7.17-3.48-9.7.15-.65-.25.14,0-.49,1.13-3.57,7.61-8.63,11.31-8.84a1.72,1.72,0,0,1,.9,1.07c.15,1.47-1.3,2.68-.64,4.57,2.42-.38,4.89-.28,6.74,2.2,1.16-7.63.81-8.51-3.79-10.24-.18-5.39,4.58-6.14,7.78-8.36A6.77,6.77,0,0,1,77,242c2.18,1.81,5.39,1.17,7.52,3.29.92.92,2.09,0,1.78-1.16-.92-3.36.27-7.81-4.44-9.38-.21-.65-.44-1.49.07-1.9,3.23-2.65,5.81-6.16,9.88-7.73a2.14,2.14,0,0,1,1.7,1.21c.23,5.39,5,4.7,8.17,6.07a6.76,6.76,0,0,1,2.76.16,8.79,8.79,0,0,1,4,7.32c-2.14,3.72-5.9,5.73-9,8.38-7.26,6.16-7.37,6-1.81,15.19-2.75-6.17-1.51-10.66,4.76-13.05A2.44,2.44,0,0,1,104,252a10.14,10.14,0,0,1,.46,3.19c-.12,5.44-1.19,10.77-2.14,16.11a7.15,7.15,0,0,1-1.35,2.75,148.18,148.18,0,0,1-14.67,12.63c-2.63,2-3,3.9-1.61,6.78,1.12,2.36,2.37,4.76,2.54,7.35.6-2.4,2.61-5-.75-7.27a1.89,1.89,0,0,1-.13-2.73c2.25-2.21,3.93-5.37,7.75-5.28.24,3.26,3.72,3.64,5.18,5.83a10.08,10.08,0,0,1,.74,2,7.75,7.75,0,0,1-.72,5.81c-3.43,5.86-1.26,10.91,2.26,15.64a60.85,60.85,0,0,0,5.32,6.57c2.82,2.84,3,5.91.1,8.73a19.36,19.36,0,0,0-6.25,11.47,12.44,12.44,0,0,1-6.77,9.37,7.37,7.37,0,0,0-3.59,4,8.56,8.56,0,0,1-.71,1.29,27.36,27.36,0,0,1-5.29,5.13,5.63,5.63,0,0,1-1.47.53c-5.25.11-10.34.54-15.4,2.48-5.75,2.2-12.24-1.51-13.29-6.86A5.83,5.83,0,0,0,53,354.73c-1.92-3-4.09-5.52-4.83-9.63-.62-3.45-4.7-6.75-7.13-10.2-2.32-1-2.75-3.73-4.73-5-.89-1.16-2.12-.55-3.18-.55-5.13,0-6.84-2.09-5.29-7,1.08-3.45,2.62-6.76,2.13-10.51C29.47,308.46,29.36,305.07,28.43,301.81Z"/><path class="cls-1" d="M6.49,275.83c-3.95-2.4-1.79-4.72.08-7.05,1.38-.58,1.14-2,1.53-3.07.31-1.46,1.56-2.67,1.37-4.17-.74-5.79,1.58-10.92,3.16-16.23,4.66-5.24,8.89-10.75,11.15-17.54a65.82,65.82,0,0,0,5-9.23,14.06,14.06,0,0,0,1.81-6.7c5.33-6.92,12.63-11.67,19.14-17.25,15.24-13.05,30.57-26,45.87-39,5.17-4.39,10.46-8.65,15.59-13.09,1.61-1.4,3.15-3.16,5.67-1.87.8,7,1.18,14.08,2.19,21.08.24,1.7-.91,3.12-1.93,4.47a26.86,26.86,0,0,0-5.77,18.13,8.38,8.38,0,0,1-.51,2.94,33.74,33.74,0,0,0-4.3,9.05,5.33,5.33,0,0,1-2.09,2.7q-13.51,11.75-27.22,23.23C68.08,229.9,59,237.63,49.86,245.32c-11.9,10-24,19.77-35.56,30.25-1.4,1.28-2.85,2.31-4.87,1.94-2.42-1.09-1.84-3.09-1.55-4.95C7.32,273.55,7.82,275.08,6.49,275.83Z"/><path class="cls-1" d="M43.47,182.83c1.59-.5,8.74-6.35,9.9-8.1-1-2.23-.58-3.68,2.1-3.92,3.31.08,6-.77,7.57-4.15,1.2-2.48,5.62-1.71,6-5.37a2.84,2.84,0,0,1,.43-3c1.49-2.34,4-.36,5.77-1.31,2-4.69,8.95-4.44,9.95-10.12.06-3.75,3.22-2,5-2.84l9-8.14a19.25,19.25,0,0,1,1.4-4.56,3.17,3.17,0,0,1,1.67-1.3c1.66-.84,3.34.49,5,0,1.29-4.6,8.23-3.64,8.76-9-.34-3,.7-4.7,4-4.11,1.91,1.9,2.62-.82,4-1,3.16,2,2.19,4.49.43,6.63a22.23,22.23,0,0,0-4.59,9.1c-1.1,2.74-3.33,4.55-5.46,6.37-24.85,21.21-50.14,41.89-74.77,63.36-2.42,2.11-4.5,5.07-8.3,5-2-1-.93-2.48-.5-3.77.56-1.69,1.66-3.18,1.88-5,.85-2.36,1.39-4.86,2.77-7,0-1.47,1.08-2.25,2-3.15a7.12,7.12,0,0,1,2.18-5A3.89,3.89,0,0,1,43.47,182.83Z"/><path class="cls-1" d="M51.32,30C49,29.8,47.4,28.33,45.66,27.1c-1.9-1.34-4-3-6.19-2.85-5.9.34-10.34-4-15.94-4.55-1.92-.19-3.28-2.08-4-4.06-.44-1.2-.54-3.09-2-3-1.75.08-1.84,2.1-2.15,3.47-.69,3-1.3,6.11-1.73,9.19-.47,3.42-2,6-5.24,7.22-2.07.79-3,2.58-4,4.23C2.87,39.19,3.32,41,6.32,42.05a54.06,54.06,0,0,1,7.73,3.26c1.47.77.7,1.47-.57,1.67-3.4-1-6.84-2-10.18-3.19C1.12,43-.29,36.61,1.47,35c1-.93,1.28-2.21,2.25-3,2.28-1.34,4.4-3,6.77-4.17l2.17-6.89c.8-1.59-.33-3.5.84-5a2.12,2.12,0,0,1,.16-1c.49-1.74.56-3.62,1.81-5.08A2.25,2.25,0,0,1,15.65,9c1.54-1.27,2.86-.68,4.11.48,2.31,4.74,5.86,7.91,11.18,8.8,4.41,3.31,10.4,1.84,14.88,4.95,4.52,2.76,9.12,4.94,14.72,4.5a19.08,19.08,0,0,0,7-1.83c3.57-1.71,6.94-1.59,9.94,1.28a2.34,2.34,0,0,1,0,1.61.79.79,0,0,1-1.33.2c-3.72-.53-7.45-1.19-10.93,1A41.1,41.1,0,0,1,51.32,30Z"/><path class="cls-1" d="M30.43,150.89c1.9.76,5.92-2.72,5.51,2.81,0,.6,1.61,1.42,2,.82,1.65-2.75,5.85-3,6.47-6.63a2.09,2.09,0,0,1,1-1.5c.89-.67,2.06.25,2.94-.51,2.58-.84,2.82-4.47,5.93-4.88.93-.13,1.12-2.05.23-2.5-5.11-2.57-1.06-5.54-.78-9.35,3.18,4.21,4.17,8.38,5.83,12.22.76,1.77-.82,2.39-1.72,3.16C52.19,149.39,46.41,154.1,40.8,159c-1.61,1.41-2.73,1.3-4.27.07-1.93-1.53-4-2.86-6.07-4.27-1.33-.23-2-1.52-3.21-2-1.45-.55-.35-1.17,0-1.76A2.17,2.17,0,0,1,30.43,150.89Z"/><path class="cls-1" d="M77.22,27.94c-3.07-2.07-6.28-2.73-9.78-1.08Q55.5,32.5,45.36,24l.32-.63c1.72-1.28,3.13-.18,4.37.78s2.44,2.14,4.23,2.06c5.76-.39,11.8.83,17-3,3.28.56,6.24,2,9.28,3.25a11.59,11.59,0,0,1,4.72,1.44l2.87.16a1,1,0,0,1-.38,1.46A10.19,10.19,0,0,1,77.22,27.94Z"/><path class="cls-1" d="M55.31,67.93c-.58,2.55-.86,5.22-1.8,7.62-2.7,6.87-5.26,13.54-1.41,21,.78,1.53-.46,4.11-.76,6.21a.94.94,0,0,1-1,.47c-.59-.29-.72-.89-1-1.42,1.14-5.14.73-9.87-2.61-14.33-1.83-2.45,1.41-4,2.2-6q2.68-6.78,5.35-13.57C54.68,67.46,55,67.46,55.31,67.93Z"/><path class="cls-1" d="M42.54,120.58c-2.06,3.69-5.15,6.26-9.37,6.19-4.87-.07-5.5,1.55-3.14,5.39a1.28,1.28,0,0,1-.5,1.71c-1.45-1.05-3-2.19-2.93-4.15s-.45-3.3-2.61-3.86c-1.62-.41-1.76-1.65-.77-3l1.3.28c3.89-1.29,8.15.9,11.93-1.29,1.46-.83,3-1.58,3.81-3.15.93-.47,1.55.06,2.15.68A1.36,1.36,0,0,1,42.54,120.58Z"/><path class="cls-1" d="M54.32,356.78c2.56,6,8.38,8.39,14.69,5.59,4.95-2.21,10.07-1.38,15.16-1.59a1.36,1.36,0,0,1,.24,1.17c-.68,1.33-2.12,1.14-3.23,1.63a9.85,9.85,0,0,0-5-.05c-2.92-.5-5.26,1.2-7.73,2.21a10.18,10.18,0,0,1-5.14.77c-2.36-3-6.37-.46-9-2.72C54,361.46,53.2,359.13,54.32,356.78Z"/><path class="cls-1" d="M166.82,53.08c-.39,1.52-1.92,1.38-2.92,2-.93.33-1.34-.19-1.59-1,1.21-2.86,3.58-5.14,4.13-8.32.58-1.9.23-3.86.35-5.79,1.35-6.66,5.34-12,8.44-17.88.69-.72,1.28-1.57,2.38-1.7a1.7,1.7,0,0,1,1.31.62q-3.82,7.49-7.66,15c-2.4,3.75-1.4,7.94-1.54,12a.59.59,0,0,1-.11.89C168.65,50.26,168.39,52.11,166.82,53.08Z"/><path class="cls-1" d="M112.11,329c.3,2.48-3,1.78-3.28,3.78a4.76,4.76,0,0,1-2.77,2.8c-1.39.72-2.12,1.63-.93,3.12,1.15,1.21.26,2.88.93,4.19-.63,1.41-3,1-3.1,2.91-.8,2-1,4.29-2.88,5.7l-4,.33c3.67-5.91,5.35-12.69,8.1-19a19.43,19.43,0,0,1,2.48-2.57c3.89-3.61,3.92-4.54.28-9.67-.1-.22-.19-.44-.28-.67a1.93,1.93,0,0,1,.32-1.36,2.55,2.55,0,0,1,1.4-.31c1.95.8,2.85,2.64,4.09,4.14a3.92,3.92,0,0,1,.43,1.45C113,325.64,113.32,327.46,112.11,329Z"/><path class="cls-1" d="M30.44,311.81c-.13,3.28.22,6.51-1.24,9.75-2.12,4.74-1.19,5.85,4,6.42A14.45,14.45,0,0,1,36.48,329c.08,0,.13.31.09.45s-.18.27-.28.4a14.4,14.4,0,0,1-2.78.87c-2.29.24-5.64,2.73-6.57.37s-2.41-5.52-.6-8.84c1.73-3.16,3.49-6.58,3.26-10.48C29.88,311.37,30.16,311.35,30.44,311.81Z"/><path class="cls-1" d="M105.13,332.82c-2.42,4.11-2,9.17-4.59,13.3-1.31,2.09-2.48,4.17-4.41,5.73q-1.23,2-2.45,4c-3.14,1.5-3.65,6-7.47,6.69a2.39,2.39,0,0,1-2-.74v-1h0a16,16,0,0,0,5-5h0c.81-2.21,2-4.25,4.17-5.24,5.13-2.34,6.63-6.76,7.33-11.83C101,336,101.5,333.14,105.13,332.82Z"/><path class="cls-1" d="M108.11,318.78l-1,0c-7.6-4-10.54-11.48-7.33-19.18,1-2.38.94-4.78,1-7.22a7.53,7.53,0,0,1,.6-3,1.33,1.33,0,0,1,1.22-.76c2,1,1.11,3.19,1.91,4.68a5.48,5.48,0,0,1-.42,3.65c-.06.64-.09,1.28-.18,1.91-.3,2.1-3.69,2.65-2.76,5.27,1.35,3.82,2,8.05,5.8,10.55a7.35,7.35,0,0,1,1.61,2.21A2,2,0,0,1,108.11,318.78Z"/><path class="cls-1" d="M27.25,152.83a3.68,3.68,0,0,1,3.21,2c0,1.48-.05,3,0,4.46.07,2.68,1.08,3.95,4.06,3.14,2.45-.68,5.23-1.71,6.8,1.67l-3.92,1.62c-1.69-.19-3.34.34-5,.25a12.42,12.42,0,0,0-2.92-1.66c-3.76-.91-3.91-3.3-1.89-5.66S29,154.68,27.25,152.83Z"/><path class="cls-1" d="M50.36,103l1-.29c1.81.47,2.55,2.61,5.12,2.41,1.94-.15,1.84,2.14.44,3.57-.42.43-1.24.74,0,1.13a6.23,6.23,0,0,0,1.44.11c-.49,2.82-2.8,3.3-5,3.93A4.17,4.17,0,0,1,51,113.3c-2.32-1.78-1.48-4.38-1.7-6.7l.22-2.6A1.23,1.23,0,0,1,50.36,103Z"/><path class="cls-1" d="M162.76,53.94l1.14,1.15L161.2,57c-1.92,1.52-3.2,3.76-5.46,4.88L152.19,64c-1.88,1.53-1.71,3.82-2,5.89-.37,2.34-.82,4.58-2.66,6.27a2.49,2.49,0,0,1-2.73.89,1.59,1.59,0,0,1,.12-2.11h0a6.91,6.91,0,0,0,1.62-4.57,11.22,11.22,0,0,1,6.34-10.42h0c3.2-1.73,4.74-5.73,8.69-6.44A1.39,1.39,0,0,1,162.76,53.94Z"/><path class="cls-1" d="M88.13,28.91c0-.29,0-.58,0-.87l1.76-1.18a10.33,10.33,0,0,0,4-5.15l-.08.13c2.62-3.54,2.4-8.28,4.93-11.86a1.21,1.21,0,0,1,1.34,0c-1.42,4.91-2.81,9.83-5.17,14.4C90.69,32.58,84.15,34.19,76.2,29h1C80.85,28.24,84.5,31.43,88.13,28.91Z"/><path class="cls-1" d="M8.38,255.84c-4.39-6.2-2.23-14.27,4.25-16,.6,1.44.16,2.88,0,4.32.06,2.83-1.13,5.29-2.19,7.79C9.58,253.18,9.79,255,8.38,255.84Z"/><path class="cls-1" d="M30.45,19c-5.56-.67-9.81-2.95-11-9-.52-1.6-2.44-1.73-3.21-3.08-.31-1.34-1.49-2.66-.09-4,2-.27,3.66.15,4.49,2.24-.2.9-.19,1.71.83,2.13,2.32,2.06,1.14,6,4,7.72l1,1c1.23,1.14,2.62.3,3.94.32a3.07,3.07,0,0,1,2.31,1.56,1.93,1.93,0,0,1-.22,1.41A1.79,1.79,0,0,1,30.45,19Z"/><path class="cls-1" d="M118,2c.91-1.54,2.45-1.66,4-1.8a48.23,48.23,0,0,0,6.16,2.72c3.18,2.6,5.86-.84,8.83-.75C138.68,3.73,142,0,143,4c-1.9,1.91-4.57.89-6.73,1.8-4,1.49-7.88,1.85-11.78-.29-1.6-.88-3.45-.84-5.23-1.06A2,2,0,0,1,118,2Z"/><path class="cls-1" d="M118,2c.36.65.71,1.3,1.06,2a6.2,6.2,0,0,1-7.6,3.3C106.75,5.87,102.94,7.1,99,9.08a1.32,1.32,0,0,1-.08-1.51c1-2.33,2.45-4.07,5-4.62A29.69,29.69,0,0,1,114,4Z"/><path class="cls-1" d="M55.31,67.93h-1c-3.17-4.46-6.51-8.76-11-12a11,11,0,0,0-5.14-.76c-1.14-1.68-2.55-2.84-4.75-2.43-.43-1.77,1.54-.91,1.93-1.78,7,2.38,13.59,5.37,17.64,12.17C54,64.66,55.13,66.05,55.31,67.93Z"/><path class="cls-1" d="M35.41,50.94l-1.93,1.78L30.4,53.91c-2,.46-2.45,2.24-2.91,3.74a9.7,9.7,0,0,1-8,7.18c-2.64.7-1.85-2-2.9-2.91a2.25,2.25,0,0,1,.9-1c3.36,1.91,5.41.79,6.79-2.69C27.16,51,27.34,50.92,35.41,50.94Z"/><path class="cls-1" d="M9.46,251.78c.51-2.71,2.67-5,2.11-8,.56-.77,1.06-1.67,2.22-.85a1.62,1.62,0,0,1-.26,1.94c-2.3,7.2-2.36,14.91-4.95,22-1.13-.77-1-1.95-1-3.08a8.61,8.61,0,0,0,1.06-5.07C9.6,256.53,8.62,254,9.46,251.78Z"/><path class="cls-1" d="M13.53,244.88l0-2c-.59-1.52.59-2,1.51-2.6,1.65-1.08,3.47-2,3.42-4.43,2.31-2.17,1.8-5.8,4.09-8a1.28,1.28,0,0,1,1.56-.37l.4.43C22.51,234.64,19.67,240.83,13.53,244.88Z"/><path class="cls-1" d="M142.86,4c-1.53-2.07-4.3,0-5.93-1.81C143.73-.41,148.58,4,153.83,7c1.37,1,1.66,2-.25,2.69C149.78,8.2,145.32,8,142.86,4Z"/><path class="cls-1" d="M41,334.9c3.2,4.06,8,7.07,8.35,13,.16,3.07,4,4,4.12,7.05.28.34.21.61-.16.82-2.36-3.11-7.69-4.72-5.14-10.34.13-.28-.61-1.14-1.12-1.5C43.91,341.68,42.19,338.48,41,334.9Z"/><path class="cls-1" d="M1.59,288.75.76,285c.65-3.09,3.67-3.73,5.62-5.48a2,2,0,0,1,1.36-.06,4.52,4.52,0,0,1,2.32,2.59c-.15,3.42-3.49,4.27-5.16,6.47C3.84,289.2,2.77,289.89,1.59,288.75Z"/><path class="cls-1" d="M49.32,106.6c2.3,1.55-.37,4.74,2,6.25a20,20,0,0,1-.93,3.28c-1.42,2.85-3,4.87-5.73,1.14-.55-1.67.75-2.74,1.31-4.06C48.27,111.58,48.17,108.77,49.32,106.6Z"/><path class="cls-1" d="M29.45,213.91a3,3,0,0,0-3.05-2c-2.28.09-3.66-.77-4.1-3.18-.46-2.56,1.87-2.66,3.05-3.74a8.49,8.49,0,0,1,2.17-1.09c1.63,1.71-.3,4.48,1.82,6a5.11,5.11,0,0,1,1.51,2.26C30.84,213.13,31,214.19,29.45,213.91Z"/><path class="cls-1" d="M178.92,21,177.71,21c-.42-2.81-1.71-4.3-4.87-4.07-3.51.25-6.72-1.36-10-2.51-1.06-.38-2.81-.7-2-2.68,2.24-.79,4,.77,6,1.22l3.85,1.14c2.2.89,4.5.3,6.75.4,2.42.1,4.16.8,4.26,3.58C180.9,19.1,180.55,20.68,178.92,21Z"/><path class="cls-1" d="M30.43,150.89l-3.22.18c.82-3.13,2.24-6.14.46-9.52-.92-1.76,0-3.54,1.58-4.78C31.81,141.3,29.77,146.21,30.43,150.89Z"/><path class="cls-1" d="M30.45,19h2c1-.8,2.16.06,3.2-.3,1.48,1.13,3.13.57,4.74.47,1.09.65,2.42.87,3.38,1.78.8.81,2.8.86,1.79,2.83l-.18.22C40.73,21.26,34.56,23.19,30.45,19Z"/><path class="cls-1" d="M140.89,85l-6.43,7c-1.89.76-1.88,3.07-3.38,4.17a1.83,1.83,0,0,1-1.37-.19,3.29,3.29,0,0,1-.55-1.34c2.06-5.24,6-8.69,10.8-11.21C140.71,83.71,141.32,84.06,140.89,85Z"/><path class="cls-1" d="M41.19,164c4.9,4.35,5.2,8,1.19,13.91a.89.89,0,0,1-1.32-.09c-1.12-2.22.32-3.83,1.34-5.53C44.74,169.08,39.87,167,41.19,164Z"/><path class="cls-1" d="M105.15,208l0,1.82c-1.52,2.45-.77,5.57-2.36,8a2.69,2.69,0,0,1-1.27.64,1.66,1.66,0,0,1-1.78-1c-.33-4.13.81-8.11,1.33-12.15a4,4,0,0,1,.7-1.39,2.12,2.12,0,0,1,1.45-.48C105.51,204.2,105.14,206.17,105.15,208Z"/><path class="cls-1" d="M105.44,227.79c1.46,1.48,3.07,2.84,3.58,5-.56.7-.12,1.94-1.24,2.33-2.39-.44-2.8-3.17-4.76-4.13-2.41-2.85-2.51-5.64.24-8.35C106.11,223.45,103.19,226.73,105.44,227.79Z"/><path class="cls-1" d="M140.89,85l-1-1.11a7.62,7.62,0,0,1,5-7l2-1A1.28,1.28,0,0,1,148,77C145.74,79.77,144.73,83.66,140.89,85Z"/><path class="cls-1" d="M127,112.7a1.35,1.35,0,0,1,0-.77,3.29,3.29,0,0,1,.75-.91,5.22,5.22,0,0,0,1.58-2.41,1.7,1.7,0,0,1,.9-.77c1,2,.57,4.09.63,6.15-1,2.62.45,5.23,0,7.85,0,1.12-1,1-1.68,1.24-.86.33-1.31-.16-1.65-.84a41,41,0,0,0-.54-8.85C127,113.16,127,112.93,127,112.7Z"/><path class="cls-1" d="M19.48,64.83c3.57-1.82,6.21-4.35,7.32-8.43.39-1.46.93-3.83,3.6-2.49-.29.64-.58,1.29-.86,1.94C27,58,28.37,62.56,24.49,63.79A5.69,5.69,0,0,1,19.48,64.83Z"/><path class="cls-1" d="M63.31,366.51c4.42-.43,7.92-4.85,12.87-3-2.88,1.19-5.85,2.23-8.63,3.63C65.8,368.05,64.54,368,63.31,366.51Z"/><path class="cls-1" d="M29.46,218.91c-1.09,3.3-2.15,6.63-5,9l-.07-.09c-1.61-1.34,1-2.59.09-3.91,1.31-2.34,2.63-4.68,3.94-7C30.16,216.86,30.1,217.74,29.46,218.91Z"/><path class="cls-1" d="M100,273.77l1.17-1.67c.63-1.14,1.54-1,2.52-.58,1.57,1.77,0,3.74.34,5.59a.36.36,0,0,1-.12.5,8.81,8.81,0,0,1-1.64,2c-1,.8-1.89,2-3.46,1.15C97.74,278.18,99.79,276.13,100,273.77Z"/><path class="cls-1" d="M114,4c-3.47.92-6.76.11-10-1.08C107.59.67,110.91,1.17,114,4Z"/><path class="cls-1" d="M166.92,12.91,160.78,12c-3.12.88-5.75.59-7-3,1.13-.67.11-1.35,0-2C157.63,10.18,163.09,9.72,166.92,12.91Z"/><path class="cls-1" d="M86.17,361.8c3.29-1,3.34-6.09,7.51-6-1.6,4-3.37,7.73-8.5,7.81C84.67,362.58,85.65,362.31,86.17,361.8Z"/><path class="cls-1" d="M148,77l-1.14-1a15.06,15.06,0,0,0,2.1-7c0-2.14.77-4.24,3.23-5-.17.67-.35,1.34-.52,2-.33,2.64-1.49,5.17-1,7.91C150.5,75.56,149.25,76.28,148,77Z"/><path class="cls-1" d="M28.38,210.9c-3.08-2-.83-4.65-.86-7,1.71-1.36,1.59-4.15,3.9-5a2.12,2.12,0,0,1,.67,1.12c-.24,2.83-2.9,5-2.09,8.13A3.76,3.76,0,0,1,28.38,210.9Z"/><path class="cls-1" d="M41.4,177.36l1,.51c.13,1.71-.27,3.52,1.09,5l-3.88.1c-.72-.14-1.44.54-2.15,0,0-2,1.36-3.49,2.06-5.23A1.75,1.75,0,0,1,41.4,177.36Z"/><path class="cls-1" d="M6.64,279.91c-1.51,2.23-4,3.36-5.88,5.1-1.78-3.92-.39-5.59,3.75-5.29A1.57,1.57,0,0,1,6.64,279.91Z"/><path class="cls-1" d="M122.13,139.93l-.25,3a31.81,31.81,0,0,0,0,11c0,1.22.07,2.44-1.24,3.12-2.75-3.57-2.9-13.11-.28-17.46A2.06,2.06,0,0,1,122.13,139.93Z"/><path class="cls-1" d="M121.08,153.76c.38-3.6-1.12-7.33.8-10.81.24,6,.5,12,2.05,17.92-1.13.49-1.8-.17-2.43-1a4.33,4.33,0,0,1-.4-1.37C121.23,157,122,155.35,121.08,153.76Z"/><path class="cls-1" d="M25.49,14.92c-3.62-1.38-3.74-4.59-4-7.72C26.39,7.88,23.93,12.46,25.49,14.92Z"/><path class="cls-1" d="M115,177.88c0,3.68,1.54,7.51-1.08,10.94-1.81.26-1.55-1.12-1.7-2.16a7,7,0,0,1,.24-1.29,8.76,8.76,0,0,0-.18-5.63,5.77,5.77,0,0,1-.12-1.38,2.44,2.44,0,0,1,1-1.83C114.23,176.38,115.22,176.32,115,177.88Z"/><path class="cls-1" d="M45.54,23.73,43.37,21a.79.79,0,0,1,1.22-.1c4,.25,6.6,3.26,9.69,5.29-1.87,1.35-3-.37-4.29-1.13S47.37,23,45.54,23.73Z"/><path class="cls-1" d="M105.44,227.79c-2.43-.74-.34-4-2.6-4.8a1.94,1.94,0,0,1-1.62-1.49,4.28,4.28,0,0,1,.7-3.74l.21-.17a1.45,1.45,0,0,1,1.79.28C106.18,220.91,104.43,224.56,105.44,227.79Z"/><path class="cls-1" d="M169.72,48c-1.5-4.26-1.94-8.38,1.54-12C170.21,39.93,171.58,44.17,169.72,48Z"/><path class="cls-1" d="M103.92,217.87l-1.79-.28c1.12-1.91,1.05-4.05,1-6.13,0-1.51.44-2.12,2-1.66C107.93,213,103.21,215,103.92,217.87Z"/><path class="cls-1" d="M105.15,208c-2-.84-.33-3.31-1.89-4.35-.25-1.94,1.24-2.8,2.38-3.88a1.32,1.32,0,0,1,1.29.08C106.29,202.53,108,205.76,105.15,208Z"/><path class="cls-1" d="M106.93,199.83a6.49,6.49,0,0,0-.77.11c-1,.51-1.68,0-2.28-.77a1,1,0,0,1,.23-1.18l1.89-2.14c1.22-1.8,2-4.22,5-3.26.3,2.72-1.86,4.21-3.07,6.17Z"/><path class="cls-1" d="M98.94,7.57,99.13,9c.33.23.44.46.32.68s-.23.33-.34.33c-2.17,3.78-1.74,8.72-5.28,11.88C95.45,17.05,96.14,11.93,98.94,7.57Z"/><path class="cls-1" d="M181.78,18a6.36,6.36,0,0,0-6.46-3.14c-1.51.17-3.25.55-4.55-.84h10.9c1.7.85,2.25,2,1,3.66A1.61,1.61,0,0,1,181.78,18Z"/><path class="cls-1" d="M111,248.89c-1,2-3.17,3.36-3,5.92a1.46,1.46,0,0,1-1.72.44,2.16,2.16,0,0,1-.82-1c-.39-1.32.11-2.56.37-3.82.07-.44.17-.86.28-1.29a3.29,3.29,0,0,1,1-1.73,3.15,3.15,0,0,1,2.71-.19A2,2,0,0,1,111,248.89Z"/><path class="cls-1" d="M119.94,167.86,116.75,174c-.53.95-1.13,1.62-2.18.56-1-3.49,1.37-5.87,2.83-8.55a1.78,1.78,0,0,1,1.28-.48A2.14,2.14,0,0,1,119.94,167.86Z"/><path class="cls-1" d="M46,113.21,45.15,117a3.44,3.44,0,0,1-2.79,2.84l-2.1-1.16C40.8,115.43,44.49,115.45,46,113.21Z"/><path class="cls-1" d="M110.13,235.69c2.94,2.57,2.93,5.76,1.88,9.15a1.06,1.06,0,0,1-1.4-.22,14,14,0,0,1-1.62-6.88A2.91,2.91,0,0,1,110.13,235.69Z"/><path class="cls-1" d="M24.49,63.79c2.4-2.18,1.81-6.28,5.05-7.94C27.55,58.3,30.81,64.12,24.49,63.79Z"/><path class="cls-1" d="M119.94,167.86a1.78,1.78,0,0,1-.9-1.81,1.71,1.71,0,0,1-.58-1.81,7.32,7.32,0,0,1,.63-1.17c.9-1.29.64-3,1.68-4.27a.9.9,0,0,1,1.19.1c0,.31.06.63.08.94,1.18,1.51.69,3.28.76,5A5.5,5.5,0,0,1,119.94,167.86Z"/><path class="cls-1" d="M31.44,199.88c0-.35,0-.7,0-1,.86-3,.74-6.46,4-8.28.16,2.67-1.08,4.95-2,7.32C32.52,198.3,33.37,200.47,31.44,199.88Z"/><path class="cls-1" d="M106.1,255.15l1.87-.33c-.46,2.72.31,5.74-2,8a1.26,1.26,0,0,1-1.39-.47C103.7,259.67,103.82,257.18,106.1,255.15Z"/><path class="cls-1" d="M36.45,121.87c.66,1,0,1.7-.75,1.74-4,.17-8.06.19-12.09.27,1.58-2.44,4.15-1.95,6.46-2.2,1.76.24,3.46,1.22,5.3.44Z"/><path class="cls-1" d="M20.63,5.07,16.14,2.83C17,1.22,18.77,2.16,20,1.58c.42-.2,2-.22,2.23,1.11S22.13,4.94,20.63,5.07Z"/><path class="cls-1" d="M122.13,139.93l-1.22-.07a4.5,4.5,0,0,1-1.36-3.13,2.73,2.73,0,0,1,1.5-2.29,1.81,1.81,0,0,1,2,.43C125.65,137.08,124.16,138.55,122.13,139.93Z"/><path class="cls-1" d="M80.19,26.88c-2.89-1.46-6.33-1.54-8.94-3.69,3.63-1.26,6.19,1.08,9,2.68.33.24.44.46.32.69S80.3,26.88,80.19,26.88Z"/><path class="cls-1" d="M30.44,311.81H29.6c-1.65-3.18-1.18-6.62-1.17-10C30.35,304.89,30.51,308.33,30.44,311.81Z"/><path class="cls-1" d="M21.46,296.75c-2.47-1.95-6.39-1.49-8-4.87,1.26-1.23,2.61-.47,3.94-.18a8.46,8.46,0,0,1,1.28.54,9.48,9.48,0,0,1,3.15,2.65A1.44,1.44,0,0,1,21.46,296.75Z"/><path class="cls-1" d="M17.54,292.81l-4.08-.93c-1.32.71-2.64,1.65-3.94,0a1.47,1.47,0,0,1,.63-1.57C15.57,288.83,16.79,289.25,17.54,292.81Z"/><path class="cls-1" d="M17.48,61l-.9,1c-1.19-2.68-2.06-5.35.22-7.93C18.16,56.2,17.2,58.64,17.48,61Z"/><path class="cls-1" d="M125,127.07c0,.82-.15,1.58-1.1,1.83a1.59,1.59,0,0,1-2.13.08c-.49-3.29.35-5.67,4.12-6C127.2,124.67,125.74,125.79,125,127.07Z"/><path class="cls-1" d="M122,128.93l1.89,0c.23,2.07.69,4.18-.89,6l-1.93-.17c-1.34-1.58-.29-3.13,0-4.69A2.77,2.77,0,0,1,122,128.93Z"/><path class="cls-1" d="M102.92,282.81v3c-.41.94.32,2.21-.8,3l-.35.29c-3.3-.92-1.65-3.52-1.86-5.49.17-1.22.29-2.47,1.65-3C102.91,280.75,102.34,282.13,102.92,282.81Z"/><path class="cls-1" d="M6.49,275.83A5.34,5.34,0,0,1,8,271.65c1.43,1.55-.31,4,1.68,5.25.16.79-.28,1.17-1,1.38a1.61,1.61,0,0,1-1.16-.46Z"/><path class="cls-1" d="M29.46,218.91a2.17,2.17,0,0,0-1-2c.34-1,.67-2,1-3a1.82,1.82,0,0,0,.93-1.76c.31-.59.68-.63,1.11-.11C31.43,214.51,31.63,217.06,29.46,218.91Z"/><path class="cls-1" d="M53.33,355.77c0-.27.1-.55.16-.82.76.39.8,1.11.83,1.83-.7,2.34,1.29,4.67,0,7C51.47,361.45,54.23,358.37,53.33,355.77Z"/><path class="cls-1" d="M102.11,288.8c0-1.06-.2-2.18.8-3a7.38,7.38,0,0,1,2,5c-.51.55-.1,1.51-.87,1.94Z"/><path class="cls-1" d="M130.82,121.84a8,8,0,0,1,0-7.85C130.89,116.61,132.47,119.22,130.82,121.84Z"/><path class="cls-1" d="M108,198.76l2.85-6.14a1,1,0,0,1,.23-1,.59.59,0,0,1,.85.33C112.12,195.13,110.45,197.18,108,198.76Z"/><path class="cls-1" d="M41.4,177.36l-1.9.32c.31-2.16.32-4.49,2.9-5.43C42.07,174,41.73,175.65,41.4,177.36Z"/><path class="cls-1" d="M7.56,263.84c1.18.75.92,2,1,3.08-.06,1.29.41,3.14-2,1.86C6.77,267.11,5.87,265.21,7.56,263.84Z"/><path class="cls-1" d="M37.44,182.91c.72-.29,1.44-1,2.15,0a5.89,5.89,0,0,1-2.19,4.47C35.73,185.89,36.81,184.4,37.44,182.91Z"/><path class="cls-1" d="M129,99.92a13.59,13.59,0,0,0,1.13,7.92.66.66,0,0,0-.51.13,1.52,1.52,0,0,1-2,0c-.91-1.21-.82-2.66-1-4a13.66,13.66,0,0,1-.16-2.71,2.35,2.35,0,0,1,1.22-1.53A1.44,1.44,0,0,1,129,99.92Z"/><path class="cls-1" d="M10.49,27.82C8.56,29.76,7.13,32.49,3.72,32c-.17-.74.23-1,.88-1,.76-1.73,2.31-2.36,3.94-2.9Z"/><path class="cls-1" d="M104.07,277.11c-1.82-1.6-.81-3.31-.2-5l.29-.54a1.5,1.5,0,0,1,1.17.15,9.4,9.4,0,0,1,.53,1.11A5.34,5.34,0,0,1,104.07,277.11Z"/><path class="cls-1" d="M150.69,73.91c-1.88-2.91-.21-5.38,1-7.91A13,13,0,0,1,150.69,73.91Z"/><path class="cls-1" d="M111.89,192a5.26,5.26,0,0,1-.89-.08,2.49,2.49,0,0,1-.72-1.34c.49-1.81-.08-4.26,2.77-4.67.15,1-.24,2.21.89,2.94C114.44,190.64,112.21,190.68,111.89,192Z"/><path class="cls-1" d="M18.44,235.8c1.86,3.34-1.76,3.48-2.94,5-.41-.32-1-.44-1.1-1.08A13.39,13.39,0,0,0,18.44,235.8Z"/><path class="cls-1" d="M105.86,272.82l-.85-.9c-1.8-2.71-1.56-5.56-.56-8.46.2-.22.4-.43.61-.64l1,0C106.14,266.17,106.78,269.51,105.86,272.82Z"/><path class="cls-1" d="M125,127.07l1-4.17.25-.6a1.31,1.31,0,0,1,1.72-.4l1.2,1.18C127.63,124.28,127.27,126.67,125,127.07Z"/><path class="cls-1" d="M128.1,2.91c-2.39-.14-4.85-.12-6.16-2.72C124.76-.67,126.23,1.57,128.1,2.91Z"/><path class="cls-1" d="M112.17,320.34c3.3,2.5,2.19,5.44.85,8.42-1.24-1.83.34-4.13-1-5.93h0A1.83,1.83,0,0,1,112.17,320.34Z"/><path class="cls-1" d="M93.91,21.71c-.2,2.63-.67,5-4,5.15C90.47,24.54,92.7,23.53,93.91,21.71Z"/><path class="cls-1" d="M100.08,351.52a13.52,13.52,0,0,1,2.88-5.7C103.17,348.32,103.82,351,100.08,351.52Z"/><path class="cls-1" d="M30.44,122.89c-2.3.13-4.71-.44-6.83,1l-.39-1A4.79,4.79,0,0,1,27.46,121a4,4,0,0,1,3.14.71A.93.93,0,0,1,30.44,122.89Z"/><path class="cls-1" d="M114.93,174.81l1.82-.79c.12,1.6.12,3.15-1.73,3.86a1.85,1.85,0,0,0-1.76-1,1,1,0,0,1-.48-1.08C113.28,175,113.89,174.43,114.93,174.81Z"/><path class="cls-1" d="M112.17,320.34c-.06.83-.11,1.66-.17,2.49-1.42-1.23-2-3.28-3.89-4.05,0-.65-.07-1.3-.11-1.95,1.15-.64,1.49.41,2.06,1C110.76,318.66,111.46,319.5,112.17,320.34Z"/><path class="cls-1" d="M14.4,239.76l1.1,1.08-2,2-1.94,1a5,5,0,0,1,1.06-3.9Z"/><path class="cls-1" d="M111.06,244.91l1-.07c1.38,1.78.51,3-1,4l-.91-1.11C109,246.35,109.7,245.52,111.06,244.91Z"/><path class="cls-1" d="M32.37,166c1.6-1.53,3.28-1.49,5-.25C35.79,167.37,34.12,167.47,32.37,166Z"/><path class="cls-1" d="M155.74,61.89c1.55-1.93,2.92-4.06,5.46-4.88C159.69,59,158.76,61.63,155.74,61.89Z"/><path class="cls-1" d="M21.46,296.75l0-1.93a.72.72,0,0,1,1.11-.07l-.08-.07c1,1,2.24,1.74,2.82,3.1l.06,2.07C23.21,299.93,23.21,297.21,21.46,296.75Z"/><path class="cls-1" d="M30.39,121.92c-1-.11-2.2.18-2.93-.92,1.43-1.2,2.74-1.62,3.63.59C31.08,122.17,30.84,122.28,30.39,121.92Z"/><path class="cls-1" d="M9.46,251.78c.18,2.39.67,4.81-.84,7l-.24-2.93C8.69,254.47,8.05,252.85,9.46,251.78Z"/><path class="cls-1" d="M110.13,235.69l-.13,2.06c-2.26.11-2.93-.84-1.94-2.91a2.22,2.22,0,0,1,1-2.05A3.73,3.73,0,0,1,110.13,235.69Z"/><path class="cls-1" d="M122.8,164.8c-1.41-1.47-.62-3.29-.76-5l1.89,1A3.16,3.16,0,0,1,122.8,164.8Z"/><path class="cls-1" d="M129,99.92l-.44.13h-.45c-1-2.05.09-3.18,1.74-4.08a3.74,3.74,0,0,1,.94.13,1.11,1.11,0,0,1,1,.77C131.56,98.49,130.33,99.24,129,99.92Z"/><path class="cls-1" d="M182.66,17.72a5.37,5.37,0,0,0-1-3.66c1.08-.06,2.43-.6,2.88.89S184.19,17.41,182.66,17.72Z"/><path class="cls-1" d="M16.23,6.86c1.9.16,3.16,1,3.21,3.08a6.25,6.25,0,0,0-3.79-1C15.48,8.17,15.24,7.34,16.23,6.86Z"/><path class="cls-1" d="M166.82,53.08c.94-1.39.37-3.8,2.79-4.2C169.82,51,169,52.54,166.82,53.08Z"/><path class="cls-1" d="M38.23,55.15c2-1.87,3.53-.2,5.14.76C41.64,55.79,39.67,57.29,38.23,55.15Z"/><path class="cls-1" d="M80.19,26.88l0-1c1.88.15,4.17-.74,5,2Z"/><path class="cls-1" d="M102.92,282.81l-.86-2a1.41,1.41,0,0,1,0-2c.25-1,1-1.25,1.91-1.23Q103.42,280.2,102.92,282.81Z"/><path class="cls-1" d="M131.84,96.86c-.34-.26-.68-.52-1-.77,1-1.57,1.27-3.78,3.65-4.08Z"/><path class="cls-1" d="M30.42,17c-1.38-.14-3,.47-4-1.06,2,.9,4-1.8,6.09-.07C32.17,16.84,31,16.33,30.42,17Z"/><path class="cls-1" d="M104,292.8l.87-1.94c.15,2.08,1.59,4.32-.77,6.07C104.1,295.56,104.07,294.18,104,292.8Z"/><path class="cls-1" d="M24.51,223.89c1.72,1.34-.38,2.6-.09,3.91l-1.89,0C22.33,226.08,23.83,225.19,24.51,223.89Z"/><path class="cls-1" d="M86.17,361.8l-1,1.85-4-.07,3-1.79Z"/><path class="cls-1" d="M30.39,121.92c.23-.12.46-.23.7-.33,1.58-1.06,2.82.66,4.28.53-1.48,1.33-3.27.58-4.93.77C30.44,122.57,30.42,122.24,30.39,121.92Z"/><path class="cls-1" d="M35.63,18.65c-.91,1.75-2.07.78-3.2.3,0-.33,0-.65,0-1a1.53,1.53,0,0,1,1.19-1.29A3.21,3.21,0,0,1,35.63,18.65Z"/><path class="cls-1" d="M13.5,15.9c-.19,1.7.6,3.55-.84,5C12.26,19.14,11.55,17.3,13.5,15.9Z"/><path class="cls-1" d="M15.47,9.86a10.92,10.92,0,0,1-1.81,5.08C13.44,13,13,10.88,15.47,9.86Z"/><path class="cls-1" d="M1.59,288.75c1.22.38,1.82-.89,2.82-1.06a1.76,1.76,0,0,1,.9,1.57A2.88,2.88,0,0,1,5,290.49l-.49.42C3.13,290.74,1.86,290.42,1.59,288.75Z"/><path class="cls-1" d="M110.06,317.81l-2-1a2.36,2.36,0,0,1-1-2.17A3.34,3.34,0,0,1,110.06,317.81Z"/><path class="cls-1" d="M112,322.83c1.85,1.71.69,3.94,1,5.93a4.27,4.27,0,0,1-.91.26C112.07,327,112,324.89,112,322.83Z"/><path class="cls-1" d="M106.06,342.91c-1.43-1.15-.89-2.73-.93-4.19C107.2,339.72,107.68,341.09,106.06,342.91Z"/><path class="cls-1" d="M8.54,28,4.6,30.94C5.2,29,5.86,27.13,8.54,28Z"/><path class="cls-1" d="M44.59,20.87l-1.22.1a3.21,3.21,0,0,1-3-1.85A3.27,3.27,0,0,1,44.59,20.87Z"/><path class="cls-1" d="M33.6,16.68,32.41,18l-2-1c.46-.85,1.32-.95,2.14-1.12Z"/><path class="cls-1" d="M106.06,335.6c.92-.93,1.85-1.86,2.77-2.8C108.87,334.7,107.88,335.57,106.06,335.6Z"/><path class="cls-1" d="M50.36,103l-.82,1H47.75l1.67-2.23C49.73,102.19,50,102.61,50.36,103Z"/><path class="cls-1" d="M7.53,277.82l1.13.05c.25,1-.22,1.57-1.21,1.74l-.81.3-2.13-.19Z"/><path class="cls-1" d="M9.56,290.79c0,.35,0,.71,0,1.07-1.7-.18-3.59.66-5-1l.07-.09A3.78,3.78,0,0,1,9,290.24Z"/><path class="cls-1" d="M91.16,106.92c2.13.18,7.8-3.81,7.88-5.56a2.46,2.46,0,0,0-.14-1c-2.18-5.25-2.18-5.25-.63-10.62,2,4.92,3.72,9,5.44,13.14.7,1.68-.54,2.46-1.52,3.28-5.69,4.82-11.43,9.58-17.12,14.4-1.38,1.18-2.55,1.82-4.29.38-3.13-2.61-6.45-5-10-7.73,2.86-.31,5.15-.4,7.36-.87,1.76-.37,1.73.21,1.77,1.71.06,2.11,1.89,3.49,3.1,1.49,1.42-2.32,4.36-2.27,5.42-4.61a4.79,4.79,0,0,1,0-2.9C88.91,106.77,89.68,106,91.16,106.92Z"/><path class="cls-1" d="M42.36,119.88A5.79,5.79,0,0,1,45.15,117c3,3,3.92,1.25,4.23-1.88.9-1.34,2.7-1.12,3.76-2.19l5.16-3c1.42-1.11,1.63-3.28,3.45-4,3.36-1.38,3.54-2.4.58-5.11-2.42-2.2,1.13-5.23,1.6-8.24q2.55,6,5.08,11.9c.73,1.72-.2,2.77-1.43,3.8C62,113,56.35,117.54,51,122.45c-4,3.64-5.66-1.21-8.45-1.87A1.69,1.69,0,0,0,42.36,119.88Z"/><path class="cls-1" d="M99.11,10c0-.34,0-.67,0-1a11.42,11.42,0,0,1,11.39-2.4c3.14.94,6-.49,8.49-2.61,2-1.39,4-.44,5.54.45,3.79,2.12,7.51,1.79,11.37.57,7.1-1.11,16.62,2.9,18.93,8a33.38,33.38,0,0,1-4.55-1.8C144.74,8,138.91,7.86,132.6,7.35c-8.55-.69-17,1.28-25.4-.22-3-.54-4.87,1.54-7.1,2.83Z"/><path class="cls-1" d="M55.47,170.81a5.16,5.16,0,0,0-2.1,3.92c-3.12-.54-6.83-.55-4.45-5.61.56-1.21-.74-2.07-1.25-3.07a2.69,2.69,0,0,1,.67-3.59c.61-.45,2-.9,2.21-.66,2,2.48,5.82,1.62,7.56,3.54C60.56,168.06,57.27,169.38,55.47,170.81Z"/><path class="cls-1" d="M102.24,130.83,101,132c-.64,1.35-1.05,2.92-2.93,3.07-1.8-.63-3.55-1.57-2.9-3.8a6.36,6.36,0,0,0-.62-5c-1-2-.06-3.48,1.85-4.29a2.78,2.78,0,0,1,1.82.09c.75,4.43,7.78.19,7.7,5.63C105.92,130.22,103.93,130.34,102.24,130.83Z"/><path class="cls-1" d="M120,116.92c-2.47.25-3.19,2.25-4,4.11-4,.43-7,.11-4-5.09.92-1.55-1.09-1.52-1.51-2.4-.79-1.69-.8-3.3.81-4.37a2.53,2.53,0,0,1,3.83.77c.47.69.43,2,1.92,1.69C123.12,110.49,121,114.06,120,116.92Z"/><path class="cls-1" d="M84.14,146.84c-.37.31-.69.78-1.11.89-1.91.47-4.17-.85-3.51-2.11,1.87-3.5-3.83-7.5,1-10.37a2.66,2.66,0,0,1,1.82-.07c1.11,4.13,6.09,1.29,7.59,4.23A2.52,2.52,0,0,1,88.4,143C86.34,143.58,85.29,145.27,84.14,146.84Z"/><path class="cls-1" d="M154.85,12.93a25.53,25.53,0,0,0-18.93-8c2.09-1.91,4.64-.61,6.94-1l10.95,5c1.89,2,4.54,2.26,7,3,4.16,3,9,3.8,13.91,4,3.71.12,4.82,1.63,3,5l-2,1.05c-.32-.23-.44-.46-.34-.7s.2-.37.3-.37c0-1.36,0-2.89-1.87-2.9C167.05,18,161.26,14.31,154.85,12.93Z"/><path class="cls-1" d="M70.24,158.9l-1.18,2.39c-3-.58-7.67.11-4.14-5.49.8-1.27-.66-1.54-1.13-2.28-1.08-1.71-1.19-3.52.71-4.71,1.71-1.06,3.15-.51,3.88,1.45.38,1,.68,1.36,2.06,1.08,4.53-.93,4.63,1.39,2.94,4.65C73.12,157.82,69.6,156.09,70.24,158.9Z"/><path class="cls-1" d="M175.71,20.93c0,.36,0,.71,0,1.07-2.1,4.18-4.05,8.46-6.4,12.5A9.45,9.45,0,0,0,167.73,40c-1.22,1.86.25,4.15-.95,6-.31,3.18-2,5.64-4,8h-1c-.34-.22-.45-.45-.33-.67s.22-.33.34-.33c2.9-3.17,3.74-6.9,4.12-11.19C166.61,33.74,170.48,26.94,175.71,20.93Z"/><path class="cls-1" d="M144.88,76.94l-5,7c-3.79,3.46-8.23,6.32-10.25,11.39a2.26,2.26,0,0,1-2.59,0A8.93,8.93,0,0,1,129.41,91q7.74-8,15.47-16Z"/><path class="cls-1" d="M45.36,146.88l-1,1c-1.26-.37-4,1.35-3.6-.54.62-2.81-2.64-5.41-.3-7.65s3.85,2,6.54,1.65c1.61-.21,1.23,2.21.44,3.61C46.83,145.68,45.81,146,45.36,146.88Z"/><path class="cls-1" d="M91.16,106.92A1.92,1.92,0,0,0,89.1,109c-1,1.53-2.38,1.66-3.95,1-1.48-2.14.4-4.79-1.05-7-.19-.3.28-1.47.71-1.67,2.62-1.26,4.11,1.78,6.6,2C92.87,103.42,92.4,105.72,91.16,106.92Z"/><path class="cls-1" d="M122,128.93a2.14,2.14,0,0,0-.18.86c-.5,1-.89,2.18-2.3,2.29l-.52-.46c-.22-3.73,1.48-6.71,4-9.16,2.12-2.07,2.41-4.13,1-6.58a6.39,6.39,0,0,1,3-3.18l-.12.4c1.41,3.42,1.74,6.75-.87,9.8h0A7.42,7.42,0,0,0,122,128.93Z"/><path class="cls-1" d="M152.84,59.94a18.73,18.73,0,0,0-6,12.36,3.11,3.11,0,0,1-2,2.63A43.5,43.5,0,0,0,146,68.17C146.26,63.92,148.05,60.57,152.84,59.94Z"/><path class="cls-1" d="M128,111.83l-1.12.1a8.58,8.58,0,0,1-1.22-12,1,1,0,0,1,.75.88c.11,1.83-.71,3.73.42,5.48a10.86,10.86,0,0,1,.76,1.83C128.68,109.24,129.14,110.45,128,111.83Z"/><path class="cls-1" d="M126.07,100.66a1,1,0,0,0-.37-.75,3.74,3.74,0,0,1,1.38-4.62h2.59a1.45,1.45,0,0,0,.2.66L128.13,100c-.33.33-.65.66-1,1Q126.34,101.64,126.07,100.66Z"/><path class="cls-1" d="M161.79,52.93c0,.33,0,.67,0,1-3.73.88-5.1,5.29-8.94,6C155.43,57.1,157.19,53.18,161.79,52.93Z"/><path class="cls-1" d="M51.32,30H65.27A20.69,20.69,0,0,1,51.32,30Z"/><path class="cls-1" d="M84.14,146.84c.13-2.73.89-4.73,4.26-3.81l1.77,1c-1.48,1.26-4,.65-5,2.84Z"/><path class="cls-1" d="M70.24,158.9c-2-4.3,2.43-1.58,3.14-2.91.25,1,1.19.78,1.88,1C74.08,159,71.4,156.9,70.24,158.9Z"/><path class="cls-1" d="M98.11,135.1,101,132c.2,1.71,0,3.24-1.91,3.87A.81.81,0,0,1,98.11,135.1Z"/><path class="cls-1" d="M102.24,130.83c1.07-1.24,3.13-1.27,3.72-3.1.21.87.29,1.82,1.24,2.28C105.77,131.64,103.93,130.75,102.24,130.83Z"/><path class="cls-1" d="M45.36,146.88c-.78-2.27,1.08-1.63,2.1-1.92l.9.92C47.63,147.05,46.4,146.68,45.36,146.88Z"/><path class="cls-1" d="M85.15,110.05c1.49.36,2.66-.57,3.95-1,0,.74.05,1.48-.72,1.93C87.24,110.85,86,111.18,85.15,110.05Z"/><path class="cls-1" d="M4.6,289.73c-.06-.68-.12-1.36-.19-2,1.25-2.4,4.56-2.91,5.25-5.81,4.79-6.05,11.25-10.24,17-15.16C49.45,247.39,72.34,228.21,95,208.79c1.32-1.13,2.46-2.9,4.67-1.9,1.94,3.36.84,6.74,0,10.11.13,1.88-1,3.56-1,5.43-.15,1.64-1.26,2.45-2.61,3.06-1.36.77-2.79-.23-4.16.18l-9.81,9.12a2.1,2.1,0,0,1,.58,1.88c-.82,3.4-3.82,2.14-5.92,2.79A18.8,18.8,0,0,1,74,240.53c-1.41,1.27-1.55,3.66-4.39,3.77-1.8.07-3,2.19-3.3,4.29a2.26,2.26,0,0,1,.44,2c-.73,1.6-2.05,1.74-3.54,1.42-2.52-.45-4.68.39-5.64,2.68-.68,1.63-1.16,2.59-3.13,2.65s-2.19,2-2.54,3.59a3.63,3.63,0,0,1-.42,2.31c-.77.91-1.18,2.23-2.63,2.36a2.21,2.21,0,0,1-1.7-.68c-2.77.31-5,1.34-5.79,4.33-.35,1.31-.95,2.62-2.59,2.09-2.44-.79-2.43,1.49-3.44,2.5-.58,1.58.68,3.21-.13,4.79-.42.94-1,1.62-2.15,1.15-1.24-.31-2.2-1.7-3.72-1-2.69,3.67-7.89,4.58-9.86,9,.56,1.85,1.42,3.76-1,5q-.48,0-1,0c-1.78-4.17-5.41-1-8-2h0C8.1,289.56,6,291.11,4.6,289.73Z"/><path class="cls-1" d="M57.24,288.78c-1.3.92-1.45,2.88-3.51,3.24-1.71.29-2.67,2.7-1.3,3.31,4.7,2.11,1.41,4.87,1.08,7.38-.1.82-.28,1.62-.6,3.42-2-4.86-3.68-8.93-5.46-12.95-.77-1.74-.09-2.6,1.26-3.68,5.68-4.56,11.32-9.18,16.81-14,2.16-1.89,3.72-2,5.89,0,2.53,2.33,5.41,4.28,8.76,6.89-3,.36-5.36.58-7.68,1-1,.16-1.62.22-1.36-1.09.3-1.47,0-2.82-1.64-3.05-1.3-.17-2.07.88-2.38,2.1-.56,2.18-4,.94-4.14,3.6-.61,1.92-2.19,2.7-3.88,3.34A5.65,5.65,0,0,0,57.24,288.78Z"/><path class="cls-1" d="M100,273.77c1.66,2.6-1,4.65-.91,7.05a1.19,1.19,0,0,1,.26,1.18,21.48,21.48,0,0,1-3.08,3.24,3.84,3.84,0,0,1-2.36.88c-3.2.25-3.85,4.11-6.76,4.85-.24.06-.43,1.69-.28,1.76,6.76,3-.42,7,.5,10.51-1.72-4.1-3.41-8.21-5.15-12.31-.51-1.18-.57-2.15.56-3.07C88.58,283.18,94.3,278.47,100,273.77Z"/><path class="cls-1" d="M107.28,247.79l-.35,2.07c-1.38,1.69-3.3.45-4.9.92-1.77,1.41-1.93,4.44-5,4.66-.87.06-1.24,2-.24,2.4,5.81,2.47.21,5.81.76,8.72-2.93-3.41-3.87-7.75-5.71-11.62-.83-1.76.67-2.36,1.6-3.15,4.79-4,9.61-8,14.42-12C111.71,242.58,111.63,243.73,107.28,247.79Z"/><path class="cls-1" d="M105.13,332.82c-2.74,1.43-3.72,3.81-4.09,6.77-.6,4.85-2.16,9.19-7.16,11.36-2.17.94-3.12,3.25-4.74,4.84-.23-3.19,1.83-4.94,4.27-6.05,4.31-2,6-5.92,6.45-9.89a13.22,13.22,0,0,1,5-9.25c3.65-3.05,4.21-5.67.41-9.35a31.86,31.86,0,0,1-7.33-9.83c-1.82-4.12-2.77-8.14,0-12.23,1.28-1.88,1.25-4.06,1.2-6.23a1.61,1.61,0,0,1,2.09-.31,6.86,6.86,0,0,1-.7,6.14c-4,6.58-1.1,11.88,3,16.94a49.26,49.26,0,0,1,3.55,4.07h0c4,5.56,4,7.09,0,11.05Z"/><path class="cls-1" d="M51.36,262.52l.58-1.62c2.25,1.43,7,1.62,2.83,6.18-.67.73,1,1.36,1.55,2.1,1.41,2,.62,4.2-1.11,4.42-3.29.43-6.15-2.08-9.21-3.14-2-.71.52-3.66,1.19-5.57l2.17-.05C51.53,265.38,50.31,263,51.36,262.52Z"/><path class="cls-1" d="M33.4,278.79c.39.73.74.62,1.05-.06,1-1.11-.08-3.3,2-3.78,1.77-.47,4.47.58,3.71,1.57-2.79,3.64,3.62,7.18-.36,10.38-.95.75-2.59.45-2.64,0-.51-4.34-8.66.44-7.09-6.08a3.65,3.65,0,0,1,.46-.87C31.15,278.66,31.94,277.89,33.4,278.79Z"/><path class="cls-1" d="M66.23,250.93l.12-2.34c5.26-.9,5.74-.47,4.21,5C70,255.43,71.83,255,72.18,256c.62,1.78.55,3.33-1.05,4.38a2.42,2.42,0,0,1-3.71-1.11c-.54-1.07-.56-2.21-2.26-1.42-1.27.59-2.88,1.25-3.61-.68s-.72-3.63,1.57-4.5C64.13,252.07,65.68,252.38,66.23,250.93Z"/><path class="cls-1" d="M82.19,236.77v-2c3.4.09,7,.15,4.25,5.16-1,1.76.61,1.85,1.13,2.66A3.06,3.06,0,0,1,87,247c-1.49,1.3-2.89.68-3.77-.69s-1.34-2.36-3.29-1.46c-1.74.81-2.56-.89-3.39-2.11-.87-1.79,0-2.86,1.51-3.64C79.78,239,81.94,239.58,82.19,236.77Z"/><path class="cls-1" d="M96.1,224.88c.51-1.06,2.1-1.35,2-2.85a.89.89,0,0,1,1.36-.09c1.64,3.75,3.08,7.54,2.6,11.76-3.38.64-5.52-2.8-8.92-2.74-.94,0-1.34-2.67,0-4.13C93.59,225.39,95.15,225.6,96.1,224.88Z"/><path class="cls-1" d="M58.28,287.57,63,284.89c5.41.14,2.28,5.15,4.08,7.43.6.75-1.55,2.57-1.66,2.34-1.42-3-6.91.12-7-4.67C58.86,289.15,59.24,288.32,58.28,287.57Z"/><path class="cls-1" d="M106.1,255.15c-.25,2.57-1.47,5-1,7.67v0c-1.32,2.87.33,6.07-1,8.94l-.19.32H101.2q1-8.68,2-17.37a2,2,0,0,1,2.73,0Z"/><path class="cls-1" d="M18.5,292.78c1.39-1.45-.11-3.49,1-5,1.72.53,3.9-.71,5.15,1.73,1.42,2.74-2.13,3.21-2.07,5.24l-1.11.07A3,3,0,0,1,18.5,292.78Z"/><path class="cls-1" d="M107.28,247.79c.25-2.68,5.17-5,.59-8a27.41,27.41,0,0,0-4.06-7.16,1.37,1.37,0,0,1,.24-1.71c2.06.58,2,3.36,4,4a3,3,0,0,0,1.94,2.91q.52,3.57,1.06,7.16c-.33,1-.65,1.91-1,2.87Z"/><path class="cls-1" d="M104.05,230.88l-.24,1.71c-.64.28-.77,1.38-1.76,1.11a49.19,49.19,0,0,1-3-11.75,1.8,1.8,0,0,1,2.77-.09l1,1.13C102.41,225.75,101,228.66,104.05,230.88Z"/><path class="cls-1" d="M94,286.12A2.1,2.1,0,0,1,96,284.81c4.27.1,4.12,3.49,4.39,6.29.1,1.08-1.15,1.42-2.2.69-.38-.44-.86-1.32-1.12-1.26C92.52,291.54,93.25,288.83,94,286.12Z"/><path class="cls-1" d="M98.22,291.79c2.73-3.42.26-5.19-2.19-7,0-1.8,1.73-2.14,2.76-3.06,1.4.06,1.65,1.26,2.16,2.2.55,1.67-1.51,3.75.81,5.14,0,.85.09,1.7.13,2.55a1.1,1.1,0,0,1-.89,1l-1.88.28Z"/><path class="cls-1" d="M105.92,254.72h-2.73c0-.92,0-1.85,0-2.77.81-1.82,2.16-1.93,3.77-1.18Z"/><path class="cls-1" d="M78.1,239.79c-1.32.56-1,2-1.58,3A3.3,3.3,0,0,1,74,240.53c-.12-1.63,1-1.63,2.15-1.72C77.3,238.21,78.2,238,78.1,239.79Z"/><path class="cls-1" d="M89.14,355.79a5.78,5.78,0,0,1-5,5A15.58,15.58,0,0,1,89.14,355.79Z"/><path class="cls-1" d="M36.48,275c-.68,1.26-1.36,2.52-2,3.78.13-1.68-.77-3.55.92-4.92Z"/><path class="cls-1" d="M107,250.77a5.41,5.41,0,0,0-3.77,1.18L102,250.78c1.4-1.56,3.24-.76,4.9-.92A2.79,2.79,0,0,1,107,250.77Z"/><path class="cls-1" d="M58.28,287.57l2.29.56L58.44,290l-1.2-1.21Z"/><path class="cls-1" d="M25.33,297.78a5.68,5.68,0,0,1-2.82-3.1C24.46,294.79,25.88,295.38,25.33,297.78Z"/><path class="cls-1" d="M33.4,278.79l-2.84,1.14-1.19-1.19C30.73,277.63,32.07,277.13,33.4,278.79Z"/><path class="cls-1" d="M96.1,224.88a5.4,5.4,0,0,1-3,2L92,225.67C93.16,224.29,94.72,225.06,96.1,224.88Z"/><path class="cls-1" d="M66.23,250.93c-.14,2.17-1.62,2-3.11,1.78a3.6,3.6,0,0,1,.13-.73Z"/><path class="cls-1" d="M99.1,207c-17,14.27-34,28.5-51,42.84-11.52,9.76-22.87,19.71-34.35,29.51-1.21,1-2.26,2.5-4.13,2.52a3.68,3.68,0,0,1-2.21-2.27l1.21-1.74,1-1c5.35-2.34,8.85-7.1,13.42-10.48C30.35,261,37.2,255,44,248.94,52.84,241,62.12,233.6,71,225.68c10.73-9.57,22-18.49,33.11-27.69a8.81,8.81,0,0,1,0,.89c.8,2.28-1.29,3.43-2,5.13a5.74,5.74,0,0,0-.1.82C101.24,205.8,101,207.51,99.1,207Z"/><path class="cls-1" d="M31.49,212l-1.11.11-2-1.25c-.6-1.33.48-2.1,1-3.06.25-1.24,1.22-1.58,2.26-1.84q14.3-12,28.6-24c8.53-7.14,17.33-14,25.6-21.39,10.92-9.82,22.81-18.51,33.18-29L119,132c1.36,1.23,1,2.73.62,4.21a7.85,7.85,0,0,1,0,2.11c-.93,1.33-2.59,1.49-3.81,2.36C107.16,147.8,98.51,154.81,90,162Q75,174.5,60.23,187.23C50.62,195.46,41.07,203.77,31.49,212Z"/><path class="cls-1" d="M115.76,140.72c.33-1.9,1-3.14,3.2-1.89.53,4-.24,8,0,12.07.12,2-.36,4.13.56,6.1a4.56,4.56,0,0,1,.43,2.33c0,1.63.18,3.31-.86,4.76l-.09,2-.39-.06h-.4c-2.72,2.8-3.87,6.43-5.17,10a1.43,1.43,0,0,0,.18.91c-.11.66-.21,1.32-.32,2-.87,2.06,1.66,5.72-2.82,6.09a23.1,23.1,0,0,1,4-16.42c2.88-4,4.64-7.61,3-12.55S116.58,145.78,115.76,140.72Z"/><path class="cls-1" d="M110.79,191a2.23,2.23,0,0,0,.21.88,1.12,1.12,0,0,0-.19.73c-2.43-.17-3,2.51-4.81,3.23.3-3.19,1.07-6.14,4-8C111.08,188.69,110.22,190,110.79,191Z"/><path class="cls-1" d="M110.79,191c-1-.87-.61-2.1-.8-3.17,0-1,.09-1.93.13-2.9,2.91-1.11.87-4.53,2.82-6.09a3.07,3.07,0,0,1,.27.94,10.53,10.53,0,0,1-.16,6.09h0C111.62,187.29,111.58,189.32,110.79,191Z"/><path class="cls-1" d="M31.64,206l-2.26,1.84c-1.64-3.26,2.28-5.07,2.06-8l2-2C34.22,200.89,30.3,202.86,31.64,206Z"/><path class="cls-1" d="M88.13,28.91C84.51,33,80.85,29,77.21,29c0-.34,0-.68,0-1A34.56,34.56,0,0,0,88.13,28.91Z"/><path class="cls-1" d="M166.78,46c.3-2-.8-4.23.95-6C167.47,42,168.5,44.19,166.78,46Z"/><path class="cls-1" d="M101,292.68l.9-1c.19,2.63.86,5.41-.68,7.76-4.21,6.4-.84,11.24,3,16,.92,1.16,1.93,2.24,2.9,3.36,0,.34,0,.67,0,1-9.23-7.29-10.67-12.14-6.6-22.72A10.21,10.21,0,0,0,101,292.68Z"/><path class="cls-1" d="M107.09,330.85c3.4-3.69,1.71-7.37,0-11.05C112.37,324.38,112.37,327.92,107.09,330.85Z"/><path class="cls-1" d="M53.14,113c-.27,2.42-2.35,1.72-3.76,2.19a3.23,3.23,0,0,1,2-2.31Z"/><path class="cls-1" d="M99.1,207l3-2.18c-.3,4.36-.55,8.74-2,12.92a.64.64,0,0,1-.91.25C99.21,214.34,101.38,210.66,99.1,207Z"/><path class="cls-1" d="M99.16,218a4.24,4.24,0,0,0,.91-.25h1.85c0,1.37,0,2.73-.07,4.1l-2.77.09-1,.08C96.83,220.26,98.9,219.37,99.16,218Z"/><path class="cls-1" d="M102.15,204c-.06-2,1.19-3.47,2-5.13l2,1.06-2.91,3.69Z"/><path class="cls-1" d="M126,122.9c1.17-3.18,1-6.49.87-9.8,2.57,2.66,2.48,5.65,1.1,8.8Z"/><path class="cls-1" d="M128,111.83c-.3-1.37-.61-2.73-.91-4.1.31-.34.6-.32.85.06l1.66.18C129.49,109.42,131,111.55,128,111.83Z"/><path class="cls-1" d="M101,284l-2.16-2.2a9.33,9.33,0,0,0,.34-.93l2.91-2c0,.66,0,1.32,0,2C100.88,281.58,101.16,282.85,101,284Z"/><path class="cls-1" d="M118,150.88c0-4-.26-8.1.93-12,0-.6.06-1.2.08-1.8.21-.58.55-.64,1-.27,1.18.78.82,2,.86,3.1a31.1,31.1,0,0,0,0,17.19,1.13,1.13,0,0,1,.07,1.84c-.38,1.64.74,3.59-1,5-1.16-1.49.22-3.48-1-5l-.06-2C117.81,155,119.26,152.75,118,150.88Z"/><path class="cls-1" d="M121,158.89c0-.62,0-1.23-.07-1.84,0-1.09.1-2.19.16-3.29,1.39,1.52.76,3.4.88,5.14h-1Z"/><path class="cls-1" d="M113.05,185.88q.08-3,.16-6.09A5.12,5.12,0,0,1,113.05,185.88Z"/><path class="cls-1" d="M113.08,176c-.38-4.42,2-7.41,5.17-10-.66,3.1-3.58,5.36-3.32,8.81Z"/><path class="cls-1" d="M119,158.88c1.58,1.41.73,3.3,1,5a6.46,6.46,0,0,1-.86.24C119.09,162.35,119.06,160.62,119,158.88Z"/><path class="cls-1" d="M120.05,136.76l-1,.27c0-1.66-.05-3.33-.08-5l2.88-2.25c.64,1.78-.78,3.23-.75,4.91C120.74,135.39,120.39,136.07,120.05,136.76Z"/><path class="cls-1" d="M126.07,100.66l1.08.36c.24.59.49,1.17.73,1.76-.91,1.18-.73,2.79-1.52,4C123.6,104.88,125.33,102.75,126.07,100.66Z"/><path class="cls-1" d="M126.36,106.8a3,3,0,0,1,1.52-4c0,1.67.07,3.34.1,5h-.43l-.42-.07Z"/><path class="cls-1" d="M104.06,271.78c.4-3-1-6.14,1-8.94q0,4.53,0,9.08A4.36,4.36,0,0,1,104.06,271.78Z"/><path class="cls-1" d="M4.6,289.73c1.66.3,3.57-.5,5,1.07h-5Z"/><path class="cls-1" d="M78.1,239.79c-.27-1.06-1.25-.7-1.91-1,1.53-2.1,4.64.52,6-2C82.51,240.07,80.27,239.88,78.1,239.79Z"/><path class="cls-1" d="M51.36,262.52c-.62.81,1.28,3.83-2,2.32C50.15,264.17,49.71,262.43,51.36,262.52Z"/><path class="cls-1" d="M118,150.88c1.71,1.79.69,4,.94,6C117.29,155.12,118.27,152.9,118,150.88Z"/></g></g></svg>