<svg xmlns="http://www.w3.org/2000/svg" viewBox="0 0 512 512"><defs><style>.cls-1{fill:#fff;}</style></defs><title>facebook</title><g id="Calque_2" data-name="Calque 2"><g id="Calque_1-2" data-name="Calque 1"><path class="cls-1" d="M375.05,0H512V512H296c-.13-1.32-.36-2.64-.36-3.95q0-123.69,0-247.37c0-1.59.16-3.17.28-5.28h70.21c3.13-29.47,6.19-58.37,9.33-88H296.29a11.48,11.48,0,0,1-.55-2.08c0-17-.44-34,.13-51,.24-6.81,1.25-13.88,7.47-19s13.57-6.53,21.15-6.67c15.16-.27,30.32-.2,45.48,0,3.76.05,4.82-1.07,4.79-4.8-.17-20.16-.12-40.31-.07-60.47C374.71,15.63,374.92,7.81,375.05,0Z"/><path class="cls-1" d="M189,512H0V0H284a11.5,11.5,0,0,1-2.74,1.32c-8.83,1.73-17.88,2.69-26.5,5.17-29.76,8.59-49.24,27.88-58.5,57.56a159.59,159.59,0,0,0-6.77,43.2c-.52,18.14-.12,36.3-.14,54.46,0,1.76-.15,3.52-.25,5.66h-5.95c-14.16,0-28.32.07-42.48-.06-3.15,0-4.39.77-4.38,4.17q.18,40,0,80c0,3.29,1,4.3,4.29,4.26,14.32-.14,28.65-.07,43-.05,1.77,0,3.55.15,5.8.25v5.81q0,122.43,0,244.85C189.38,508.37,189.15,510.18,189,512Z"/><path d="M189,512c.13-1.82.36-3.63.36-5.45q0-122.43,0-244.85v-5.81c-2.25-.1-4-.25-5.8-.25-14.33,0-28.66-.09-43,.05-3.27,0-4.3-1-4.29-4.26q.18-40,0-80c0-3.4,1.23-4.2,4.38-4.17,14.16.13,28.32.06,42.48.06h5.95c.1-2.14.25-3.9.25-5.66,0-18.16-.38-36.32.14-54.46a159.59,159.59,0,0,1,6.77-43.2c9.26-29.68,28.74-49,58.5-57.56,8.62-2.48,17.67-3.44,26.5-5.17A11.5,11.5,0,0,0,284,0h91c-.13,7.81-.34,15.63-.36,23.44-.05,20.16-.1,40.31.07,60.47,0,3.73-1,4.85-4.79,4.8-15.16-.2-30.32-.27-45.48,0-7.58.14-14.84,1.5-21.15,6.67s-7.23,12.17-7.47,19c-.57,17-.16,34-.13,51a11.48,11.48,0,0,0,.55,2.08H375.5c-3.14,29.63-6.2,58.53-9.33,88H296c-.12,2.11-.28,3.69-.28,5.28q0,123.69,0,247.37c0,1.31.23,2.63.36,3.95Z"/></g></g></svg>