<svg xmlns="http://www.w3.org/2000/svg" viewBox="0 0 512 512"><defs><style>.cls-1{fill:#fff;}</style></defs><title>instagram</title><g id="Calque_2" data-name="Calque 2"><g id="Calque_1-2" data-name="Calque 1"><path d="M460.1,512H52.9c-.56-.45-1.06-1.18-1.68-1.31a61.19,61.19,0,0,1-34.43-19.94C7.24,480,1.48,467.51,1.47,453.17Q1.22,256.25,1.41,59.33a39.84,39.84,0,0,1,1-9.31c6-24.88,20.94-41.24,46-47.85A25.82,25.82,0,0,0,52.9,0H460.1a8.67,8.67,0,0,0,2.17,1.35Q501,11,510.65,49.82A8.54,8.54,0,0,0,512,52V460a8.54,8.54,0,0,0-1.35,2.18Q501,501,462.27,510.65A8.67,8.67,0,0,0,460.1,512ZM64.51,208.15v6.39q0,106.23,0,212.45a71.55,71.55,0,0,0,1,10.81,11.94,11.94,0,0,0,9.58,9.47,102.15,102.15,0,0,0,13.29,1.05q168.63.09,337.26,0c4.1,0,8.44.06,12.22-1.24,3.11-1.06,6.7-3.56,8-6.39,1.84-4,2.43-8.89,2.44-13.4q.19-106.49.09-212.95V209a11.39,11.39,0,0,0-2.63-.3c-11.05,2.34-22.09,4.66-33.11,7.13-2.83.63-3.27,2.57-2.52,5.34a142,142,0,0,1,4.85,50.8c-1.34,14.55-3.69,28.79-9.42,42.07-5.12,11.87-11,23.69-18.32,34.24a140.93,140.93,0,0,1-24.71,26.81,200.53,200.53,0,0,1-33.34,22.61c-15.18,8.22-31.79,12.65-49,15.21a159.75,159.75,0,0,1-51.69-.57,157.34,157.34,0,0,1-52.4-18.94c-20.55-12-37.94-27.31-51.23-47.13-12.88-19.21-21.64-39.95-25-63.11A151.38,151.38,0,0,1,101.11,231c.92-4.59,2-9.15,3.09-14.25ZM258.68,354.61c2.81-.28,7.59-.59,12.31-1.26,27.24-3.85,49.7-16.3,67-37.86,18.85-23.53,25.13-50.56,19.37-79.69-6.07-30.68-24.14-53.42-51.66-68q-32.12-17.08-68.31-10.23c-24.31,4.63-44.66,16.28-60.16,35.18-17.22,21-25.14,45.34-22,73a94.57,94.57,0,0,0,22.48,52.14C198.33,341.86,224.93,354,258.68,354.61ZM448.49,112.25c0-9.16.17-18.33,0-27.48C448.11,70,442,63.93,427.64,63.7q-27.42-.44-54.85,0c-14.5.24-20.5,6.46-20.76,20.57-.34,18.48-.17,37,0,55.46a30.61,30.61,0,0,0,1.69,9.62c3.05,8.77,10.52,10.84,18.59,11q27.42.34,54.85,0c14.75-.15,21.11-6.39,21.32-21.59C448.59,129.9,448.49,121.07,448.49,112.25Z"/><path class="cls-1" d="M52.9,0a25.82,25.82,0,0,1-4.5,2.17c-25,6.61-39.95,23-46,47.85a39.84,39.84,0,0,0-1,9.31q-.07,196.92.06,393.84c0,14.34,5.77,26.83,15.32,37.58a61.19,61.19,0,0,0,34.43,19.94c.62.13,1.12.86,1.68,1.31H0V0Z"/><path class="cls-1" d="M512,52a8.54,8.54,0,0,1-1.35-2.18Q501,11,462.27,1.35A8.67,8.67,0,0,1,460.1,0H512Z"/><path class="cls-1" d="M460.1,512a8.67,8.67,0,0,1,2.17-1.35Q501,501,510.65,462.18A8.54,8.54,0,0,1,512,460v52Z"/><path class="cls-1" d="M64.51,208.15l39.69,8.62c-1.11,5.1-2.17,9.66-3.09,14.25a151.38,151.38,0,0,0-1.18,52.14c3.38,23.16,12.14,43.9,25,63.11,13.29,19.82,30.68,35.13,51.23,47.13a157.34,157.34,0,0,0,52.4,18.94,159.75,159.75,0,0,0,51.69.57c17.23-2.56,33.84-7,49-15.21a200.53,200.53,0,0,0,33.34-22.61,140.93,140.93,0,0,0,24.71-26.81c7.36-10.55,13.2-22.37,18.32-34.24,5.73-13.28,8.08-27.52,9.42-42.07a142,142,0,0,0-4.85-50.8c-.75-2.77-.31-4.71,2.52-5.34,11-2.47,22.06-4.79,33.11-7.13a11.39,11.39,0,0,1,2.63.3v5.34q0,106.47-.09,213c0,4.51-.6,9.4-2.44,13.4-1.31,2.83-4.9,5.33-8,6.39-3.78,1.3-8.12,1.24-12.22,1.24q-168.63.09-337.26,0a102.15,102.15,0,0,1-13.29-1.05,11.94,11.94,0,0,1-9.58-9.47,71.55,71.55,0,0,1-1-10.81q-.09-106.23,0-212.45Z"/><path class="cls-1" d="M258.68,354.61c-33.75-.61-60.35-12.75-81-36.74a94.57,94.57,0,0,1-22.48-52.14c-3.13-27.68,4.79-52,22-73,15.5-18.9,35.85-30.55,60.16-35.18q36.12-6.89,68.31,10.23c27.52,14.62,45.59,37.36,51.66,68,5.76,29.13-.52,56.16-19.37,79.69-17.27,21.56-39.73,34-67,37.86C266.27,354,261.49,354.33,258.68,354.61Z"/><path class="cls-1" d="M448.49,112.25c0,8.82.1,17.65,0,26.48-.21,15.2-6.57,21.44-21.32,21.59q-27.42.28-54.85,0c-8.07-.11-15.54-2.18-18.59-11a30.61,30.61,0,0,1-1.69-9.62c-.16-18.48-.33-37,0-55.46.26-14.11,6.26-20.33,20.76-20.57q27.42-.44,54.85,0c14.32.23,20.47,6.34,20.81,21.07C448.66,93.92,448.49,103.09,448.49,112.25Z"/></g></g></svg>