<?xml version="1.0" encoding="utf-8"?>
<!-- Generator: Adobe Illustrator 23.1.0, SVG Export Plug-In . SVG Version: 6.00 Build 0)  -->
<svg version="1.1" id="Calque_1" xmlns="http://www.w3.org/2000/svg" xmlns:xlink="http://www.w3.org/1999/xlink" x="0px" y="0px"
	 viewBox="0 0 518.3 173.6" style="enable-background:new 0 0 518.3 173.6;" xml:space="preserve">
<style type="text/css">
	.st0{fill:#EC2127;}
	.st1{enable-background:new    ;}
</style>
<title>Fichier 1</title>
<path class="st0" d="M236.3,140v-12.1c-0.1-1.2,0.7-2.3,1.9-2.5c0.5-0.1,1.1,0,1.6,0.3l3.9,1.9l5.5,2.9l7.9,4
	c2.2,1.1,4.4,2.2,6.5,3.4c1.3,0.5,1.9,1.9,1.4,3.1c-0.1,0.3-0.3,0.6-0.5,0.8c-0.3,0.3-0.6,0.5-1,0.6c-1.5,0.7-2.9,1.4-4.4,2.2
	l-7.2,3.6l-6.7,3.5l-5.5,2.9c-0.9,0.5-2,0.4-2.8-0.2c-0.5-0.4-0.8-0.9-0.8-1.5V152L236.3,140z"/>
<g class="st1">
	<path class="st0" d="M189.1,21.3c6.4,0,11.5,1.7,15.2,5.1c3.7,3.4,5.6,8.1,5.6,14.1V69h-8.3v-6.4h-0.4c-3.6,5.3-8.4,7.9-14.3,7.9
		c-5.1,0-9.3-1.5-12.8-4.5c-3.4-3-5.1-6.8-5.1-11.3c0-4.8,1.8-8.6,5.4-11.4c3.6-2.8,8.4-4.2,14.5-4.2c5.2,0,9.4,0.9,12.7,2.8v-2
		c0-3-1.2-5.6-3.6-7.7c-2.4-2.1-5.2-3.2-8.4-3.2c-4.8,0-8.7,2-11.5,6.1l-7.6-4.8C174.6,24.3,180.8,21.3,189.1,21.3z M177.9,54.8
		c0,2.3,1,4.1,2.9,5.7c1.9,1.5,4.2,2.3,6.7,2.3c3.6,0,6.9-1.4,9.8-4.1c2.9-2.7,4.3-5.9,4.3-9.5c-2.7-2.1-6.5-3.2-11.3-3.2
		c-3.5,0-6.5,0.8-8.8,2.5C179,50.2,177.9,52.3,177.9,54.8z"/>
</g>
<g class="st1">
	<path class="st0" d="M228.3,1.5V69h-8.7V1.5H228.3z"/>
</g>
<g class="st1">
	<path class="st0" d="M273.7,56.2c0,4-1.8,7.4-5.3,10.2c-3.5,2.8-7.9,4.1-13.3,4.1c-4.6,0-8.7-1.2-12.3-3.6c-3.5-2.4-6-5.6-7.5-9.6
		l7.7-3.3c1.1,2.8,2.8,4.9,4.9,6.5c2.2,1.5,4.5,2.3,7.1,2.3c2.8,0,5.1-0.6,6.9-1.8c1.9-1.2,2.8-2.6,2.8-4.2c0-3-2.3-5.1-6.8-6.5
		l-7.9-2c-9-2.3-13.5-6.6-13.5-13c0-4.2,1.7-7.6,5.1-10.1c3.4-2.5,7.8-3.8,13.1-3.8c4.1,0,7.8,1,11.1,2.9c3.3,1.9,5.6,4.6,6.9,7.8
		l-7.7,3.2c-0.9-1.9-2.3-3.5-4.3-4.6c-2-1.1-4.2-1.6-6.6-1.6c-2.3,0-4.3,0.6-6.1,1.7c-1.8,1.1-2.7,2.5-2.7,4.1
		c0,2.6,2.5,4.5,7.4,5.7l7,1.8C269.1,44.6,273.7,49.2,273.7,56.2z"/>
</g>
<g class="st1">
	<path class="st0" d="M299.2,21.3c6.4,0,11.5,1.7,15.2,5.1c3.7,3.4,5.6,8.1,5.6,14.1V69h-8.3v-6.4h-0.4c-3.6,5.3-8.4,7.9-14.3,7.9
		c-5.1,0-9.3-1.5-12.8-4.5c-3.4-3-5.1-6.8-5.1-11.3c0-4.8,1.8-8.6,5.4-11.4c3.6-2.8,8.4-4.2,14.5-4.2c5.2,0,9.4,0.9,12.7,2.8v-2
		c0-3-1.2-5.6-3.6-7.7c-2.4-2.1-5.2-3.2-8.4-3.2c-4.8,0-8.7,2-11.5,6.1l-7.6-4.8C284.8,24.3,291,21.3,299.2,21.3z M288,54.8
		c0,2.3,1,4.1,2.9,5.7c1.9,1.5,4.2,2.3,6.7,2.3c3.6,0,6.9-1.4,9.8-4.1c2.9-2.7,4.3-5.9,4.3-9.5c-2.7-2.1-6.5-3.2-11.3-3.2
		c-3.5,0-6.5,0.8-8.8,2.5C289.2,50.2,288,52.3,288,54.8z"/>
	<path class="st0" d="M333,22l-4.1-2.6l4.7-7.2c-1.3-0.3-2.4-0.9-3.3-2c-0.9-1.1-1.4-2.4-1.4-3.9c0-1.8,0.6-3.3,1.9-4.6
		c1.3-1.2,2.8-1.8,4.5-1.8c1.8,0,3.3,0.6,4.6,1.8c1.2,1.2,1.8,2.7,1.8,4.6c0,1.8-0.7,3.7-2,5.7L333,22z"/>
</g>
<g>
	<g>
		<path d="M0,106.1h22.8c5.3,0,10.1,0.8,14.4,2.5c4.3,1.6,7.9,3.9,10.9,6.9c3,3,5.3,6.5,6.9,10.7c1.6,4.1,2.4,8.7,2.4,13.7
			c0,5-0.8,9.6-2.4,13.8c-1.6,4.1-3.9,7.7-6.9,10.6c-3,3-6.7,5.2-10.9,6.9c-4.3,1.6-9.1,2.5-14.4,2.5H0V106.1z M22.2,161.5
			c3.7,0,7-0.5,9.8-1.6c2.8-1,5.2-2.5,7.1-4.4c1.9-1.9,3.3-4.2,4.2-6.8c0.9-2.7,1.4-5.6,1.4-8.9c0-3.3-0.5-6.2-1.4-8.9
			c-0.9-2.7-2.4-4.9-4.2-6.8c-1.9-1.9-4.2-3.3-7.1-4.4c-2.8-1-6.1-1.6-9.8-1.6h-9.5v43.3H22.2z"/>
		<path d="M67.8,106.1h12.7v67.5H67.8V106.1z"/>
		<path d="M114.7,175.1c-2.9,0-5.7-0.4-8.3-1.2c-2.6-0.8-5.1-2-7.3-3.7c-2.2-1.6-4.1-3.6-5.7-6c-1.6-2.4-2.9-5.1-3.9-8.2l12-4.7
			c0.9,3.4,2.4,6.2,4.6,8.4c2.2,2.2,5.1,3.3,8.7,3.3c1.3,0,2.6-0.2,3.8-0.5c1.2-0.3,2.3-0.8,3.3-1.5c1-0.7,1.7-1.5,2.3-2.5
			c0.6-1,0.8-2.2,0.8-3.5c0-1.3-0.2-2.4-0.7-3.4c-0.4-1-1.2-1.9-2.2-2.8c-1-0.9-2.4-1.7-4.1-2.5c-1.7-0.8-3.7-1.7-6.2-2.5l-4.1-1.5
			c-1.8-0.6-3.7-1.5-5.5-2.5c-1.9-1.1-3.5-2.4-5-3.9s-2.7-3.3-3.7-5.3c-1-2-1.5-4.3-1.5-6.9c0-2.6,0.5-5.1,1.6-7.4
			c1-2.3,2.5-4.3,4.4-6c1.9-1.7,4.2-3.1,6.9-4.1c2.7-1,5.6-1.5,8.9-1.5c3.4,0,6.3,0.5,8.8,1.4c2.5,0.9,4.6,2.1,6.3,3.5
			c1.7,1.4,3.1,3,4.2,4.7c1.1,1.7,1.9,3.3,2.4,4.8l-11.2,4.7c-0.6-1.9-1.8-3.6-3.4-5.1c-1.7-1.5-3.9-2.3-6.8-2.3
			c-2.8,0-5.1,0.6-6.9,1.9c-1.8,1.3-2.7,3-2.7,5c0,2,0.9,3.7,2.6,5.1c1.8,1.4,4.6,2.8,8.4,4.1l4.2,1.4c2.7,0.9,5.2,2,7.4,3.3
			c2.2,1.2,4.1,2.7,5.7,4.4c1.6,1.7,2.8,3.6,3.7,5.8c0.8,2.2,1.3,4.7,1.3,7.5c0,3.5-0.7,6.5-2.1,9.1c-1.4,2.5-3.2,4.6-5.4,6.3
			c-2.2,1.6-4.7,2.9-7.4,3.7C120,174.7,117.3,175.1,114.7,175.1z"/>
	</g>
</g>
<g>
	<g>
		<path d="M207.2,162.7c-3.3,4-7.3,7.1-11.8,9.2c-4.5,2.1-9.6,3.2-15.2,3.2c-5,0-9.7-0.9-14-2.7c-4.3-1.8-8-4.3-11.2-7.4
			c-3.1-3.1-5.6-6.9-7.4-11.2c-1.8-4.3-2.7-8.9-2.7-13.9c0-5,0.9-9.6,2.7-13.9c1.8-4.3,4.3-8,7.4-11.2c3.1-3.1,6.9-5.6,11.2-7.4
			c4.3-1.8,9-2.7,14-2.7c5.4,0,10.2,0.9,14.3,2.8c4.1,1.9,7.8,4.6,11,8.2l-9,8.7c-2-2.3-4.3-4.2-6.9-5.6c-2.6-1.4-5.7-2.1-9.3-2.1
			c-3.1,0-6.1,0.6-8.9,1.6c-2.8,1.1-5.2,2.7-7.2,4.7c-2,2-3.7,4.4-4.9,7.3c-1.2,2.9-1.8,6-1.8,9.6c0,3.5,0.6,6.7,1.8,9.6
			c1.2,2.9,2.8,5.3,4.9,7.3c2,2,4.4,3.6,7.2,4.7c2.8,1.1,5.7,1.6,8.9,1.6c3.8,0,7.1-0.8,10-2.3c2.9-1.5,5.5-3.7,7.8-6.5L207.2,162.7
			z"/>
	</g>
</g>
<g class="st1">
	<path d="M248.4,175.1c-5,0-9.7-0.9-14-2.7c-4.3-1.8-8-4.3-11.2-7.5c-3.1-3.2-5.6-6.9-7.4-11.2c-1.8-4.3-2.7-8.9-2.7-13.8
		s0.9-9.5,2.7-13.8c1.8-4.3,4.3-8,7.4-11.2c3.1-3.2,6.9-5.7,11.2-7.5c4.3-1.8,9-2.7,14-2.7c5,0,9.7,0.9,14,2.7
		c4.3,1.8,8,4.3,11.2,7.5c3.1,3.2,5.6,6.9,7.4,11.2c1.8,4.3,2.7,8.9,2.7,13.8s-0.9,9.5-2.7,13.8c-1.8,4.3-4.3,8-7.4,11.2
		c-3.1,3.2-6.9,5.7-11.2,7.5C258.1,174.2,253.4,175.1,248.4,175.1z M248.4,163c3.1,0,6.1-0.6,8.8-1.7s5.1-2.7,7.2-4.7
		c2-2,3.6-4.4,4.8-7.3c1.2-2.9,1.7-6,1.7-9.5c0-3.5-0.6-6.6-1.7-9.5c-1.2-2.9-2.8-5.3-4.8-7.3c-2-2-4.4-3.6-7.2-4.7
		s-5.7-1.7-8.8-1.7c-3.1,0-6.1,0.6-8.8,1.7c-2.7,1.1-5.1,2.7-7.2,4.7c-2,2-3.6,4.4-4.8,7.3c-1.2,2.9-1.7,6-1.7,9.5
		c0,3.5,0.6,6.6,1.7,9.5c1.2,2.9,2.8,5.3,4.8,7.3c2,2,4.4,3.6,7.2,4.7C242.3,162.4,245.2,163,248.4,163z"/>
</g>
<g>
	<g>
		<path d="M285.4,106.1h13.8l13.9,40.6l2.5,8.7h0.8l2.6-8.7l14.5-40.6h13.8l-24.6,67.5h-13.4L285.4,106.1z"/>
		<path d="M367.9,118.1v15.6h27v12.1h-27v15.6h30.1v12.1h-42.8v-67.5h42.8v12.1H367.9z"/>
	</g>
</g>
<g>
	<g>
		<path d="M409.6,106.1h24.6c3.4,0,6.5,0.5,9.2,1.6c2.8,1.1,5.1,2.5,7.1,4.4c2,1.9,3.5,4.1,4.6,6.7c1.1,2.6,1.6,5.5,1.6,8.5
			c0,2.3-0.4,4.4-1.1,6.4c-0.8,2-1.8,3.8-3.1,5.4c-1.3,1.6-2.9,3-4.6,4.2c-1.8,1.2-3.6,2.2-5.6,2.9l-0.1,0.7l18.1,25.9v0.8h-14.6
			l-17.4-25.3h-5.9v25.3h-12.7V106.1z M434.1,136.5c2.9,0,5.3-0.9,7.1-2.6c1.9-1.8,2.8-4,2.8-6.7c0-1.2-0.2-2.4-0.6-3.5
			c-0.4-1.1-1-2.1-1.8-3c-0.8-0.9-1.8-1.6-3.1-2.1c-1.2-0.5-2.6-0.8-4.2-0.8h-12v18.8H434.1z"/>
	</g>
</g>
<g>
	<g>
		<path d="M483.2,142.2l-22.7-36.1h15.2l13.5,22.3h0.8l13-22.3h15.4l-22.3,36.1v31.4h-12.7V142.2z"/>
	</g>
</g>
<rect x="147.6" y="81" width="217.4" height="9"/>
</svg>
