<?xml version="1.0" encoding="utf-8"?>
<!-- Generator: Adobe Illustrator 23.1.0, SVG Export Plug-In . SVG Version: 6.00 Build 0)  -->
<svg version="1.1" id="Calque_1" xmlns="http://www.w3.org/2000/svg" xmlns:xlink="http://www.w3.org/1999/xlink" x="0px" y="0px"
	 viewBox="0 0 50 50" style="enable-background:new 0 0 50 50;" xml:space="preserve">
<style type="text/css">
	.st0{fill:#E04E53;}
</style>
<path class="st0" d="M23.3,6c-0.2,0.4-1.5,2.6-2.7,4.8s-2.4,4.1-2.4,4.1l-5.3,9.2c0,0-9.7,16.8-10.3,17.8c-0.2,0.3-0.4,0.7-0.4,1.1
	c0,0.1,0,0.3,0,0.5l0,0v0.1c0,0.2,0.1,0.4,0.3,0.6c0.3,0.7,1.1,1.1,1.9,1.1h41.8c0.6,0,1.3-0.3,1.7-0.8c0.2-0.2,0.3-0.6,0.3-0.9
	c0-0.5-0.1-0.9-0.3-1.3c-0.5-0.8-10.5-18.2-10.5-18.2l-5.2-9c0,0,0,0,0-0.1l-0.1-0.1L32,14.8l0,0c-0.2-0.3-4.4-7.7-5-8.7
	c-0.4-0.7-1.1-1.3-1.9-1.3S23.6,5.4,23.3,6z"/>
</svg>
