<svg xmlns="http://www.w3.org/2000/svg" viewBox="0 0 511.97 422.59"><title>twitter</title><g id="Calque_2" data-name="Calque 2"><g id="Calque_1-2" data-name="Calque 1"><path d="M512,50.63v5c-3.92,4.54-7.66,9.24-11.78,13.6-9.34,9.88-18.94,19.53-28.28,29.41-5.06,5.35-8.66,11.48-9.24,19.1-.89,11.81-1,23.79-3.16,35.37-3.86,20.38-8.52,40.64-13.81,60.69-5.68,21.52-15.65,41.28-26.91,60.45-14.11,24-31.53,45.44-50.6,65.53-7.92,8.35-17,15.61-25.85,23.06-20.7,17.49-44.42,29.9-69.5,39.62A293.27,293.27,0,0,1,180,422.22a403.35,403.35,0,0,1-60.48-2.05c-19.3-2-38.53-6-56.62-13.63-18.29-7.68-36.37-15.85-54.48-23.93-2.58-1.16-4.84-3-8.38-5.3,2.91-.9,4.54-1.76,6.22-1.87,11.19-.78,22.4-1.29,33.59-2.11a199,199,0,0,0,21.57-2.24c23.51-4.31,45.93-11.89,66.76-23.76,7-4,13.78-8.27,21.62-13-22.64-6.78-43.31-14.57-61-28.65-13.73-10.94-25.41-23.43-30.66-40.76-1.6-5.27-.46-7.1,4.88-7.32,9.42-.38,18.85-.67,28.27-1,1.06,0,2.12-.23,4.46-.5-2.59-1.47-4.07-2.36-5.59-3.16-6.38-3.36-13-6.34-19.11-10.12-15.8-9.75-29.66-21.89-38.52-38.31C27.22,194.66,24,183.65,20.41,173c-2-6-2.95-12.4-4-18.68-.52-3.06.14-5.18,4.4-3.66,6,2.14,12.23,3.62,18.37,5.35,5.4,1.52,10.81,3,17.63,4.91-.86-3.27-.85-5-1.7-6.13-3.18-4.19-6.5-8.3-10-12.19-16.49-18.19-24.55-39.84-25.57-64A121.23,121.23,0,0,1,21.56,50c2.16-10.92,6.16-21.48,9.78-33.61,59.31,65.82,129.3,107.66,218.49,113.53,0-3.42.3-6.09-.06-8.67a102,102,0,0,1,1-35.91C259.43,45.85,283.1,19.39,320.61,5c14-5.37,28.77-5.24,43.46-4.88,11.08.26,22,1.8,31.78,7.48,12.33,7.2,24.32,15,36.58,22.29,1.57.94,4.11,1.52,5.74.94,17.24-6.16,34.39-12.61,51.57-18.95,3.05-1.12,6.15-2.11,10.56-3.62-1.43,3.75-2.06,5.94-3.07,7.93a156.66,156.66,0,0,1-24,34.24c-2.94,3.24-5.2,7.11-7.78,10.69l1.41,2.12C482.46,61.4,496.78,54.26,512,50.63Z"/></g></g></svg>