<svg xmlns="http://www.w3.org/2000/svg" viewBox="0 0 413.07 510.58"><defs><style>.cls-1{fill:#fff;}</style></defs><title>youtube</title><g id="Calque_2" data-name="Calque 2"><g id="Calque_1-2" data-name="Calque 1"><path d="M162.87,0c-3.42,9.52-7,19-10.22,28.56q-12.32,36.78-24.3,73.67a33.73,33.73,0,0,0-1.7,10.09c-.15,21.78-.23,43.56,0,65.34.06,4.76-1.46,5.88-5.91,5.71-8.25-.33-16.52-.1-25.41-.1v-5.93c0-20.45.12-40.9-.1-61.35a46,46,0,0,0-2.09-13.54C85,77.24,76.48,52.12,68.08,27l-9-27H91a10.77,10.77,0,0,0,0,2.89Q98.3,30.06,105.72,57.2c1.47,5.35,3.14,10.64,5,17a15.24,15.24,0,0,0,1.51-2.53c4.35-16.57,8.78-33.13,13-49.74C127,14.65,128.37,7.3,129.93,0Z"/><path class="cls-1" d="M129.93,0c-1.56,7.3-2.9,14.65-4.72,21.88-4.19,16.61-8.62,33.17-13,49.74a15.24,15.24,0,0,1-1.51,2.53c-1.87-6.31-3.54-11.6-5-17Q98.28,30.07,91,2.89A10.77,10.77,0,0,1,91,0Z"/><path d="M.55,388.94c0-12.37-.5-24.75.13-37.08.78-15.27,2-30.55,4-45.71,1.55-12,4.31-23.79,6.88-35.6,3-13.61,11.9-21.28,25.36-23.58,13.23-2.27,26.48-4.57,39.82-6,17.52-1.83,35.11-3.13,52.7-4,20.82-1.05,41.67-1.66,62.52-2q29.25-.49,58.52,0c15.53.27,31.06,1,46.56,2,14.6,1,29.23,2,43.7,4.07s28.93,5.31,43.32,8.3c8.25,1.71,13,7.81,15.79,15.11,5.18,13.35,7.41,27.41,9.28,41.57,2.68,20.32,4.41,40.69,3.87,61.18-.45,17.24-.61,34.52-2.12,51.68-1.46,16.45-4.34,32.79-6.94,49.13-.66,4.15-2.65,8.07-4,12.12-4.48,13.87-16.54,17-28.55,19.34a360.55,360.55,0,0,1-36,5.06c-18.2,1.72-36.44,3.37-54.69,3.95-35,1.12-69.95,1.61-104.93,2-12.58.16-25.18-.36-37.74-1-15.31-.75-30.68-1.28-45.88-3.1-19.5-2.33-38.9-5.56-58.25-8.93-13.81-2.41-20.06-12.6-23.3-25.1a264.67,264.67,0,0,1-8.11-51.91C1.91,410,.85,399.5,0,389Zm248.7,56.77c.48,0,.69,0,.78.05.75.64,1.49,1.29,2.21,2a29.17,29.17,0,0,0,23.6,7.7c10.39-1.06,18.1-11.16,18.13-23.6,0-22.29.07-44.58,0-66.86a109.76,109.76,0,0,0-1-15.28c-2.38-16.29-18.12-24-32-16.76-4.11,2.13-7.78,5.1-12.14,8V288.49h-23V454.16h23C249,451.14,249.12,448.42,249.25,445.71Zm103.87-31.62c0,3.76.13,6.91,0,10.05-.32,6.53-2.73,10.52-6.76,11.53-8.3,2.08-14.19-2.22-14.39-10.84s.08-17-.1-25.45c-.07-3.25,1.34-3.87,4.18-3.83,9,.12,18,.05,27,.05h14.79c0-12.41.52-24.21-.23-35.92a38.64,38.64,0,0,0-5.08-16.17c-6.74-11.7-18-14.82-30.86-14.6-19.32.32-34.38,15.11-34.38,34.42,0,20-.21,39.92.15,59.87A41.81,41.81,0,0,0,310.61,438c5.55,13.5,19.25,21.23,38.79,18.84,23.25-2.84,30.35-24.36,27.61-42.7ZM182.46,332.28v6.27c0,26.26-.43,52.54.25,78.79.22,8.46-3.81,12.26-10.14,15.46-5.77,2.93-10.6-.39-10.51-6.68.4-29.25.18-58.51.18-87.77v-6h-23.1a5.58,5.58,0,0,0-.46,1.26c-.05,35.74-.23,71.48,0,107.21.05,9,6.51,15.2,15.31,14.43,5.67-.49,11.41-2.58,16.61-5,4.25-2,7.76-5.6,12.22-9V454h24V332.28ZM99.36,454.19v-6.11c0-43.56.08-87.13-.11-130.69,0-4.74,1.42-5.94,5.89-5.72,7.23.34,14.49.09,21.74.09V288.53H44.07V311.8H72.78V454.19Z"/><path d="M164.23,114c0-11.8.24-23.6,0-35.4-.48-20,15.92-31.8,32.17-33.46,9.91-1,19.3-.54,28.18,4.1,10.05,5.27,17.3,13.15,17.67,24.85.81,25,1.2,50.07,1,75.1-.12,12.1-3.33,23.74-14.8,30.52-4.84,2.86-10.38,5.65-15.82,6.19-12.16,1.21-24.31,1.06-34.89-7.21a33.16,33.16,0,0,1-13.33-26.3C163.93,139.6,164.23,126.79,164.23,114Zm28.21,1.49c0,12,0,23.94,0,35.9,0,7,4.13,11.47,10.6,11.66s12-4.81,12-11.15q.16-36.66,0-73.3c0-7-4.52-10.31-12.89-10.09-6.15.16-9.72,4-9.74,10.58C192.42,91.21,192.44,103.35,192.44,115.48Z"/><path d="M315,183.27V169c-4.57,3.79-8,7.41-12.1,9.86-7.19,4.27-14.62,7.46-23.69,5.74-9.85-1.87-13.9-9.47-14-19.34-.41-37.75-.19-75.51-.06-113.26,0-1.24,1.64-3.51,2.58-3.55,7.94-.28,15.88-.16,24.52-.16v6.33c0,31.93.22,63.86-.14,95.79-.11,9.05,5.47,12.27,13.55,7.72,6.15-3.47,9.61-7.69,9.48-15.61-.5-29.26-.2-58.54-.2-87.81v-6.4c8.73,0,16.83-.07,24.92.12.78,0,1.76,1.51,2.2,2.51.37.84.09,2,.09,3,0,41.24-.08,82.49.11,123.73,0,4.73-1.4,6-5.89,5.73C329.45,183,322.5,183.27,315,183.27Z"/><path class="cls-1" d="M249.25,445.71c-.13,2.71-.26,5.43-.4,8.45h-23V288.49h23v52.43c4.36-2.9,8-5.87,12.14-8,13.84-7.2,29.58.47,32,16.76a109.76,109.76,0,0,1,1,15.28c.1,22.28.07,44.57,0,66.86,0,12.44-7.74,22.54-18.13,23.6a29.17,29.17,0,0,1-23.6-7.7c-.72-.67-1.46-1.32-2.21-2C249.94,445.68,249.73,445.73,249.25,445.71Zm-.18-54c0,11.79,0,23.57,0,35.35,0,5.24,5.41,9.69,11.57,9.7,5,0,8.54-3.71,8.62-9.34s0-11.28,0-16.92c0-16.76,0-33.53,0-50.29,0-6.92-3.69-10.57-10.25-10.53-6.83,0-9.95,3.22-9.95,10.17Z"/><path class="cls-1" d="M353.12,414.09H377c2.74,18.34-4.36,39.86-27.61,42.7-19.54,2.39-33.24-5.34-38.79-18.84a41.81,41.81,0,0,1-3.24-14.75c-.36-19.95-.16-39.91-.15-59.87,0-19.31,15.06-34.1,34.38-34.42,12.88-.22,24.12,2.9,30.86,14.6a38.64,38.64,0,0,1,5.08,16.17c.75,11.71.23,23.51.23,35.92H363c-9,0-18,.07-27-.05-2.84,0-4.25.58-4.18,3.83.18,8.48-.09,17,.1,25.45s6.09,12.92,14.39,10.84c4-1,6.44-5,6.76-11.53C353.25,421,353.12,417.85,353.12,414.09Zm-10.7-37.21a58.19,58.19,0,0,0,7.93-.12c1-.14,2.64-1.64,2.63-2.5a122.43,122.43,0,0,0-.86-16.71c-.78-5.3-5.17-8.26-10.15-7.79-6.25.58-9.84,4.08-10.05,9.89-.08,2.31,0,4.64,0,7C331.91,376.89,331.91,376.89,342.42,376.88Z"/><path class="cls-1" d="M182.46,332.28h24.38V454h-24V441.25c-4.46,3.37-8,7-12.22,9-5.2,2.45-10.94,4.54-16.61,5-8.8.77-15.26-5.41-15.31-14.43-.21-35.73,0-71.47,0-107.21a5.58,5.58,0,0,1,.46-1.26h23.1v6c0,29.26.22,58.52-.18,87.77-.09,6.29,4.74,9.61,10.51,6.68,6.33-3.2,10.36-7,10.14-15.46-.68-26.25-.25-52.53-.25-78.79Z"/><path class="cls-1" d="M99.36,454.19H72.78V311.8H44.07V288.53h82.81v23.23c-7.25,0-14.51.25-21.74-.09-4.47-.22-5.91,1-5.89,5.72.19,43.56.11,87.13.11,130.69Z"/><path d="M249.07,391.72V359.86c0-6.95,3.12-10.14,9.95-10.17,6.56,0,10.22,3.61,10.25,10.53.06,16.76,0,33.53,0,50.29,0,5.64.06,11.28,0,16.92s-3.58,9.35-8.62,9.34c-6.16,0-11.55-4.46-11.57-9.7C249,415.29,249.07,403.51,249.07,391.72Z"/><path d="M342.42,376.89c-10.51,0-10.51,0-10.51-10.29,0-2.31-.07-4.64,0-7,.21-5.81,3.8-9.31,10.05-9.89,5-.47,9.37,2.49,10.15,7.79a122.43,122.43,0,0,1,.86,16.71c0,.86-1.61,2.36-2.63,2.5A59.84,59.84,0,0,1,342.42,376.89Z"/></g></g></svg>