<svg xmlns="http://www.w3.org/2000/svg" viewBox="0 0 1076.51 176.17"><defs><style>.cls-1{fill:#26c6da;}.cls-2{font-size:140.11px;font-family:LemonMilk, "Lemon/Milk";}.cls-3{letter-spacing:-0.24em;}</style></defs><title>Fichier 1@4xss</title><g id="Calque_2" data-name="Calque 2"><g id="Calque_1-2" data-name="Calque 1"><path class="cls-1" d="M167,44.2c-.39,0-.77,0-1.15.06l-6.54-38.2A7.29,7.29,0,0,0,150,.31l-19.68,6a7.29,7.29,0,0,0,4.23,14l11.77-3.56L149,32.39H87v-3.1l7.61-1.92a6.64,6.64,0,0,0-2-13.07L64.51,15.9a9.63,9.63,0,0,0-1.75.27,9.33,9.33,0,1,0,4.57,18.1L72.45,33V37.7L66.46,48A46.27,46.27,0,0,0,48.07,44.2C21.56,44.2,0,66.61,0,94.16s21.56,50,48.07,50c24.1,0,44.06-18.57,47.47-42.67h7.77A7.25,7.25,0,0,0,108.73,99l10.69-11.94a51.62,51.62,0,0,0-.54,7.08c0,27.55,21.57,50,48.07,50s48-22.41,48-50S193.44,44.2,167,44.2ZM48.07,129.55c-18.47,0-33.5-15.88-33.5-35.39s15-35.38,33.5-35.38A31.58,31.58,0,0,1,59,60.87L41.76,90.5a7.29,7.29,0,0,0,6.31,11H80.8C77.62,117.47,64.15,129.55,48.07,129.55ZM80.8,86.87H60.73L71.27,68.76A35.88,35.88,0,0,1,80.8,86.87Zm19.25,0H95.54A50.36,50.36,0,0,0,78.8,55.8L83.94,47h51.83ZM167,129.55c-18.47,0-33.49-15.88-33.49-35.39,0-14.65,8.47-27.25,20.51-32.61l5.79,33.84a7.29,7.29,0,1,0,14.37-2.46l-5.82-34c17.81.78,32.11,16.22,32.11,35.24C200.42,113.67,185.4,129.55,167,129.55Z"/><text class="cls-2" transform="translate(245.1 132.39)">Bike Tr<tspan class="cls-3" x="501.18" y="0">a</tspan><tspan x="574.11" y="0">vel</tspan></text></g></g></svg>